<svg xmlns="http://www.w3.org/2000/svg" xmlns:xlink="http://www.w3.org/1999/xlink" width="220" zoomAndPan="magnify" viewBox="0 0 165 165.000002" height="220" preserveAspectRatio="xMidYMid meet" version="1.0"><defs><clipPath id="3e24eb4a0a"><path d="M 21 12.199219 L 151 12.199219 L 151 142 L 21 142 Z M 21 12.199219 " clip-rule="nonzero"/></clipPath><clipPath id="3f4b2da26e"><path d="M 12 12.199219 L 152 12.199219 L 152 151 L 12 151 Z M 12 12.199219 " clip-rule="nonzero"/></clipPath><clipPath id="396f5b8cf8"><path d="M 70 12.199219 L 94 12.199219 L 94 42 L 70 42 Z M 70 12.199219 " clip-rule="nonzero"/></clipPath><clipPath id="17ba9c8e23"><path d="M 69 12.199219 L 94 12.199219 L 94 42 L 69 42 Z M 69 12.199219 " clip-rule="nonzero"/></clipPath><clipPath id="f4693aa3d7"><path d="M 37.988281 64 L 126.699219 64 L 126.699219 103 L 37.988281 103 Z M 37.988281 64 " clip-rule="nonzero"/></clipPath><clipPath id="f5977a46ef"><path d="M 44 45 L 126.699219 45 L 126.699219 106.898438 L 44 106.898438 Z M 44 45 " clip-rule="nonzero"/></clipPath></defs><path fill="#37a7df" d="M 21.738281 68.160156 C 21.738281 56.160156 24.609375 44.828125 29.699219 34.816406 C 27.644531 37.105469 25.683594 39.730469 23.449219 43.160156 L 23.066406 43.929688 C 15.175781 56.632812 12.191406 72.9375 13.058594 88.390625 C 14.019531 105.523438 20.371094 118.417969 30.570312 129.96875 C 33.804688 133.625 37.6875 136.480469 41.761719 139.175781 C 45.910156 141.921875 50.171875 144.550781 54.792969 146.386719 C 68.453125 151.8125 83.789062 149.8125 98.339844 147.730469 C 102.039062 147.203125 105.699219 146.136719 109.101562 144.59375 C 111.085938 143.691406 113.003906 142.992188 114.800781 141.761719 C 116.933594 140.296875 119.050781 138.804688 121.125 137.261719 C 113.125 140.234375 104.476562 141.863281 95.441406 141.863281 C 54.738281 141.867188 21.738281 108.867188 21.738281 68.160156 Z M 21.738281 68.160156 " fill-opacity="1" fill-rule="nonzero"/><g clip-path="url(#3e24eb4a0a)"><path fill="#37a7df" d="M 150.292969 72.03125 C 147.582031 50.554688 133.074219 32.972656 114.3125 22.183594 C 107.945312 18.523438 102.75 16.980469 95.628906 15.25 C 90.828125 14.082031 85.859375 13.234375 81.191406 12.9375 C 75.792969 12.597656 69.875 13.714844 64.640625 15.054688 C 56.035156 17.261719 47.144531 20.550781 40.003906 25.835938 C 35.691406 29.023438 32.601562 31.582031 29.703125 34.816406 C 24.613281 44.828125 21.742188 56.160156 21.742188 68.160156 C 21.742188 108.863281 54.738281 141.863281 95.441406 141.863281 C 104.476562 141.863281 113.128906 140.234375 121.128906 137.261719 C 124.40625 134.816406 127.578125 132.238281 130.53125 129.414062 C 146.179688 114.457031 153.003906 93.507812 150.292969 72.03125 Z M 150.292969 72.03125 " fill-opacity="1" fill-rule="nonzero"/></g><g clip-path="url(#3f4b2da26e)"><path fill="#000000" d="M 22.625 43.671875 C 14.867188 56.222656 12.003906 71.4375 12.449219 86.042969 C 12.660156 93.027344 13.730469 99.984375 15.992188 106.609375 C 18.085938 112.730469 21.144531 118.472656 24.917969 123.714844 C 26.890625 126.457031 29.015625 129.152344 31.371094 131.578125 C 33.984375 134.273438 36.992188 136.554688 40.089844 138.667969 C 46.625 143.121094 53.449219 147.121094 61.21875 148.917969 C 68.824219 150.679688 76.71875 150.636719 84.449219 149.957031 C 88.398438 149.605469 92.335938 149.089844 96.261719 148.539062 C 100.242188 147.980469 104.097656 147.214844 107.832031 145.695312 C 109.621094 144.964844 111.429688 144.199219 113.152344 143.324219 C 114.9375 142.417969 116.554688 141.1875 118.179688 140.03125 C 121.382812 137.761719 124.527344 135.394531 127.511719 132.835938 C 132.914062 128.207031 137.65625 122.882812 141.414062 116.828125 C 148.59375 105.253906 151.917969 91.570312 151.3125 77.996094 C 151.019531 71.375 149.824219 64.839844 147.480469 58.632812 C 145.226562 52.667969 142.039062 47.089844 138.148438 42.039062 C 134.207031 36.925781 129.582031 32.363281 124.484375 28.402344 C 119.152344 24.261719 113.320312 20.570312 107.011719 18.109375 C 103.707031 16.820312 100.28125 15.878906 96.84375 15.027344 C 92.855469 14.039062 88.828125 13.230469 84.742188 12.757812 C 80.792969 12.296875 76.917969 12.296875 72.976562 12.84375 C 69.109375 13.382812 65.300781 14.300781 61.554688 15.367188 C 54.375 17.417969 47.269531 20.207031 41.082031 24.449219 C 36.050781 27.898438 31.28125 31.898438 27.460938 36.679688 C 25.714844 38.855469 23.878906 41.171875 22.625 43.671875 C 22.332031 44.257812 23.210938 44.769531 23.5 44.1875 C 24.113281 42.96875 24.90625 41.859375 25.6875 40.742188 C 26.59375 39.449219 27.539062 38.175781 28.539062 36.953125 C 30.304688 34.789062 32.257812 32.785156 34.363281 30.945312 C 39.632812 26.339844 45.445312 22.503906 51.90625 19.785156 C 55.277344 18.367188 58.753906 17.207031 62.277344 16.21875 C 65.917969 15.199219 69.617188 14.320312 73.367188 13.808594 C 81.375 12.71875 89.394531 14.207031 97.15625 16.152344 C 100.46875 16.984375 103.761719 17.914062 106.941406 19.167969 C 110.238281 20.472656 113.359375 22.148438 116.375 24.007812 C 121.78125 27.34375 126.820312 31.277344 131.304688 35.78125 C 140.195312 44.714844 146.777344 55.953125 149.195312 68.390625 C 151.738281 81.480469 150.253906 95.542969 144.980469 107.785156 C 142.355469 113.882812 138.792969 119.566406 134.441406 124.582031 C 129.453125 130.328125 123.449219 135.074219 117.25 139.445312 C 115.683594 140.546875 114.136719 141.699219 112.417969 142.554688 C 110.6875 143.414062 108.878906 144.199219 107.085938 144.902344 C 103.332031 146.375 99.46875 147.074219 95.496094 147.628906 C 87.890625 148.691406 80.210938 149.601562 72.519531 149.324219 C 64.726562 149.046875 57.164062 147.367188 50.238281 143.71875 C 46.828125 141.925781 43.574219 139.828125 40.398438 137.652344 C 37.28125 135.511719 34.265625 133.183594 31.667969 130.417969 C 22.765625 120.941406 16.570312 109.035156 14.421875 96.191406 C 13.238281 89.121094 13.144531 81.828125 13.824219 74.703125 C 14.515625 67.441406 16.121094 60.226562 18.835938 53.445312 C 20.125 50.230469 21.683594 47.132812 23.503906 44.1875 C 23.851562 43.628906 22.972656 43.117188 22.625 43.671875 Z M 22.625 43.671875 " fill-opacity="1" fill-rule="nonzero"/></g><g clip-path="url(#396f5b8cf8)"><path fill="#259d49" d="M 74.21875 13.328125 C 72.917969 13.621094 73.488281 15.96875 72.367188 16.699219 C 73.070312 16.902344 73.363281 17.789062 73.242188 18.511719 C 73.125 19.234375 72.722656 19.882812 72.5 20.582031 C 72.03125 22.039062 72.410156 23.742188 73.453125 24.867188 C 72.957031 25.066406 72.457031 25.269531 71.957031 25.46875 C 71.800781 26.136719 72.726562 26.65625 72.660156 27.335938 C 72.628906 27.664062 72.371094 27.917969 72.144531 28.160156 C 69.707031 30.753906 69.558594 35.1875 71.824219 37.941406 C 72.796875 39.125 74.15625 40.035156 74.761719 41.449219 C 76.261719 40.371094 75.417969 37.976562 76.019531 36.234375 C 76.125 35.933594 76.289062 35.632812 76.570312 35.484375 C 76.941406 35.285156 77.390625 35.402344 77.804688 35.441406 C 79.082031 35.554688 80.386719 34.789062 80.910156 33.625 C 81.125 33.144531 81.226562 32.605469 81.554688 32.195312 C 82.085938 31.527344 83.03125 31.417969 83.835938 31.128906 C 85.5625 30.5 86.746094 28.949219 88.078125 27.679688 C 89.410156 26.410156 91.292969 25.332031 93.015625 25.976562 C 91.984375 23.558594 90.953125 21.140625 89.921875 18.722656 C 89.675781 18.15625 89.429688 17.578125 89.015625 17.117188 C 87.488281 15.425781 84.015625 15.558594 83.644531 13.304688 C 83.644531 13.296875 79.144531 12.207031 74.21875 13.328125 Z M 74.21875 13.328125 " fill-opacity="1" fill-rule="nonzero"/></g><g clip-path="url(#17ba9c8e23)"><path fill="#000000" d="M 74.128906 12.996094 C 73.433594 13.183594 73.140625 13.800781 72.972656 14.449219 C 72.808594 15.070312 72.777344 15.996094 72.199219 16.402344 C 71.957031 16.574219 71.992188 16.921875 72.277344 17.023438 C 72.976562 17.265625 73.003906 18.183594 72.835938 18.773438 C 72.609375 19.574219 72.164062 20.28125 72.03125 21.109375 C 71.800781 22.550781 72.242188 24.015625 73.214844 25.101562 C 73.265625 24.914062 73.316406 24.722656 73.363281 24.535156 C 72.96875 24.695312 72.566406 24.859375 72.167969 25.019531 C 71.820312 25.160156 71.59375 25.234375 71.605469 25.652344 C 71.617188 26.238281 72.144531 26.570312 72.296875 27.09375 C 72.402344 27.460938 72.09375 27.710938 71.867188 27.957031 C 71.648438 28.195312 71.445312 28.449219 71.257812 28.714844 C 70.878906 29.253906 70.585938 29.847656 70.359375 30.464844 C 69.488281 32.859375 69.792969 35.753906 71.3125 37.824219 C 72.289062 39.152344 73.785156 40.074219 74.46875 41.613281 C 74.539062 41.765625 74.800781 41.835938 74.933594 41.734375 C 76.207031 40.769531 76.042969 39.136719 76.117188 37.710938 C 76.136719 37.332031 76.175781 36.949219 76.273438 36.578125 C 76.414062 36.039062 76.636719 35.679688 77.242188 35.707031 C 77.675781 35.726562 78.078125 35.808594 78.515625 35.746094 C 78.949219 35.6875 79.375 35.542969 79.757812 35.328125 C 80.480469 34.921875 81.011719 34.289062 81.3125 33.523438 C 81.472656 33.121094 81.574219 32.667969 81.871094 32.335938 C 82.1875 31.988281 82.660156 31.839844 83.097656 31.707031 C 83.957031 31.445312 84.742188 31.144531 85.476562 30.601562 C 86.171875 30.082031 86.78125 29.46875 87.382812 28.847656 C 88.789062 27.40625 90.722656 25.523438 92.925781 26.292969 C 93.238281 26.402344 93.414062 26.039062 93.308594 25.796875 C 92.738281 24.460938 92.167969 23.121094 91.59375 21.785156 C 91.042969 20.488281 90.539062 19.15625 89.921875 17.890625 C 89.496094 17.023438 88.863281 16.398438 88.015625 15.953125 C 87.261719 15.554688 86.445312 15.300781 85.671875 14.945312 C 84.882812 14.582031 84.144531 14.117188 83.976562 13.203125 C 83.957031 13.09375 83.84375 12.996094 83.738281 12.96875 C 82.773438 12.734375 81.765625 12.625 80.78125 12.550781 C 78.554688 12.382812 76.308594 12.515625 74.128906 12.996094 C 73.703125 13.089844 73.882812 13.746094 74.308594 13.648438 C 76.429688 13.175781 78.617188 13.0625 80.78125 13.230469 C 81.710938 13.300781 82.652344 13.40625 83.558594 13.621094 C 83.476562 13.542969 83.402344 13.464844 83.320312 13.382812 C 83.632812 15.078125 85.484375 15.589844 86.859375 16.160156 C 87.703125 16.511719 88.554688 16.9375 89.0625 17.734375 C 89.410156 18.285156 89.636719 18.910156 89.890625 19.503906 C 90.175781 20.171875 90.460938 20.839844 90.746094 21.511719 C 91.40625 23.050781 92.066406 24.597656 92.722656 26.140625 C 92.851562 25.972656 92.976562 25.808594 93.105469 25.640625 C 91.261719 25 89.382812 26.035156 88.035156 27.246094 C 86.671875 28.480469 85.53125 30.132812 83.742188 30.792969 C 82.972656 31.078125 82.101562 31.1875 81.476562 31.773438 C 80.773438 32.429688 80.777344 33.492188 80.121094 34.191406 C 79.484375 34.871094 78.585938 35.175781 77.667969 35.078125 C 77.242188 35.035156 76.792969 34.964844 76.402344 35.183594 C 76.039062 35.382812 75.832031 35.753906 75.699219 36.136719 C 75.398438 36.984375 75.4375 37.917969 75.40625 38.804688 C 75.375 39.632812 75.3125 40.605469 74.59375 41.148438 C 74.746094 41.191406 74.902344 41.230469 75.054688 41.273438 C 74.527344 40.085938 73.527344 39.246094 72.640625 38.332031 C 71.78125 37.449219 71.148438 36.433594 70.820312 35.242188 C 70.207031 33 70.65625 30.402344 72.1875 28.617188 C 72.578125 28.160156 73.109375 27.71875 72.980469 27.050781 C 72.929688 26.792969 72.796875 26.566406 72.65625 26.351562 C 72.507812 26.128906 72.238281 25.839844 72.285156 25.554688 C 72.203125 25.636719 72.125 25.714844 72.046875 25.792969 C 72.542969 25.59375 73.042969 25.390625 73.542969 25.1875 C 73.78125 25.09375 73.875 24.828125 73.691406 24.621094 C 73.140625 24.007812 72.789062 23.242188 72.675781 22.425781 C 72.554688 21.539062 72.769531 20.738281 73.113281 19.929688 C 73.40625 19.242188 73.695312 18.539062 73.570312 17.777344 C 73.460938 17.132812 73.085938 16.585938 72.457031 16.371094 C 72.484375 16.578125 72.511719 16.78125 72.535156 16.988281 C 73.117188 16.578125 73.324219 15.917969 73.476562 15.253906 C 73.601562 14.714844 73.667969 13.824219 74.308594 13.652344 C 74.730469 13.539062 74.550781 12.886719 74.128906 12.996094 Z M 74.128906 12.996094 " fill-opacity="1" fill-rule="nonzero"/></g><path fill="#259d49" d="M 94.898438 31.785156 C 94.175781 31.519531 93.410156 31.25 92.65625 31.40625 C 91.90625 31.566406 91.226562 32.332031 91.460938 33.066406 C 91.753906 33.960938 92.972656 34.027344 93.910156 33.925781 C 93.550781 34.460938 93.917969 35.242188 94.496094 35.527344 C 95.074219 35.808594 95.761719 35.734375 96.390625 35.609375 C 97.3125 35.425781 98.339844 35.035156 98.628906 34.140625 C 98.84375 33.484375 98.574219 32.777344 98.3125 32.136719 C 98.066406 31.546875 97.824219 30.957031 97.578125 30.367188 C 97.539062 30.273438 97.496094 30.175781 97.417969 30.117188 C 97.273438 30 97.058594 30.050781 96.886719 30.117188 C 96.261719 30.351562 95.695312 30.734375 95.242188 31.226562 " fill-opacity="1" fill-rule="nonzero"/><path fill="#000000" d="M 94.988281 31.460938 C 94.183594 31.167969 93.273438 30.851562 92.417969 31.121094 C 91.765625 31.328125 91.179688 31.890625 91.089844 32.589844 C 90.894531 34.152344 92.796875 34.378906 93.910156 34.261719 C 93.8125 34.09375 93.710938 33.921875 93.617188 33.753906 C 93.152344 34.539062 93.648438 35.527344 94.433594 35.867188 C 95.355469 36.273438 96.582031 36.011719 97.480469 35.640625 C 98.355469 35.277344 99.070312 34.585938 99.042969 33.578125 C 99.023438 32.949219 98.765625 32.367188 98.53125 31.792969 C 98.300781 31.238281 98.113281 30.628906 97.824219 30.101562 C 97.226562 29.003906 95.503906 30.449219 94.996094 30.980469 C 94.699219 31.300781 95.175781 31.777344 95.476562 31.460938 C 95.824219 31.09375 96.21875 30.792969 96.671875 30.570312 C 96.921875 30.449219 97.164062 30.265625 97.296875 30.582031 C 97.402344 30.832031 97.507812 31.085938 97.613281 31.339844 C 97.960938 32.179688 98.757812 33.46875 98.144531 34.347656 C 97.679688 35.019531 96.691406 35.238281 95.933594 35.34375 C 95.46875 35.410156 94.902344 35.433594 94.503906 35.136719 C 94.183594 34.902344 93.980469 34.457031 94.195312 34.09375 C 94.316406 33.890625 94.164062 33.558594 93.902344 33.585938 C 93.261719 33.652344 91.636719 33.730469 91.746094 32.683594 C 91.804688 32.132812 92.394531 31.765625 92.898438 31.707031 C 93.550781 31.640625 94.195312 31.890625 94.796875 32.113281 C 95.21875 32.265625 95.394531 31.609375 94.988281 31.460938 Z M 94.988281 31.460938 " fill-opacity="1" fill-rule="nonzero"/><path fill="#259d49" d="M 61.589844 16.46875 C 60.851562 17.070312 63.570312 17.050781 63.316406 17.96875 C 63.984375 17.632812 64.777344 17.765625 65.519531 17.820312 C 66.265625 17.875 67.125 17.789062 67.5625 17.179688 C 67.882812 16.738281 67.953125 16.054688 68.46875 15.875 C 68.832031 15.746094 69.222656 15.960938 69.613281 15.976562 C 70.65625 16.019531 71.179688 14.753906 71.40625 13.734375 C 71.40625 13.734375 63.988281 14.515625 61.589844 16.46875 Z M 61.589844 16.46875 " fill-opacity="1" fill-rule="nonzero"/><path fill="#000000" d="M 61.347656 16.226562 C 60.847656 16.667969 61.296875 17.101562 61.75 17.277344 C 61.9375 17.351562 63.046875 17.609375 62.988281 17.878906 C 62.921875 18.183594 63.21875 18.382812 63.488281 18.261719 C 64.441406 17.820312 65.566406 18.296875 66.570312 18.109375 C 66.984375 18.03125 67.394531 17.863281 67.6875 17.550781 C 67.976562 17.25 68.082031 16.863281 68.277344 16.511719 C 68.589844 15.953125 69.101562 16.300781 69.605469 16.316406 C 69.988281 16.328125 70.355469 16.191406 70.652344 15.945312 C 71.269531 15.433594 71.554688 14.582031 71.730469 13.828125 C 71.773438 13.632812 71.632812 13.375 71.402344 13.398438 C 68.78125 13.675781 66.074219 14.132812 63.59375 15.046875 C 62.796875 15.34375 62.015625 15.695312 61.347656 16.226562 C 61.007812 16.5 61.488281 16.976562 61.824219 16.707031 C 63.015625 15.757812 64.679688 15.351562 66.128906 15 C 67.570312 14.644531 69.039062 14.386719 70.511719 14.183594 C 70.808594 14.140625 71.105469 14.105469 71.402344 14.074219 C 71.292969 13.929688 71.183594 13.789062 71.078125 13.644531 C 70.925781 14.300781 70.664062 15.3125 69.953125 15.582031 C 69.511719 15.75 69.054688 15.453125 68.601562 15.5 C 68.222656 15.539062 67.9375 15.765625 67.742188 16.078125 C 67.542969 16.394531 67.464844 16.789062 67.210938 17.070312 C 66.910156 17.394531 66.421875 17.476562 66 17.488281 C 65.015625 17.515625 64.082031 17.238281 63.144531 17.671875 C 63.308594 17.796875 63.476562 17.925781 63.640625 18.050781 C 63.769531 17.460938 63.300781 17.132812 62.8125 16.933594 C 62.5625 16.832031 62.296875 16.753906 62.042969 16.664062 C 62.027344 16.65625 61.789062 16.539062 61.777344 16.546875 C 61.792969 16.539062 61.722656 16.792969 61.824219 16.703125 C 62.15625 16.417969 61.675781 15.941406 61.347656 16.226562 Z M 61.347656 16.226562 " fill-opacity="1" fill-rule="nonzero"/><path fill="#259d49" d="M 63.644531 19.570312 C 63.070312 19.789062 63.136719 20.714844 63.628906 21.085938 C 64.121094 21.453125 64.792969 21.429688 65.40625 21.390625 C 65.214844 20.515625 64.660156 19.726562 63.902344 19.242188 Z M 63.644531 19.570312 " fill-opacity="1" fill-rule="nonzero"/><path fill="#000000" d="M 63.554688 19.242188 C 63.265625 19.359375 63.066406 19.558594 62.960938 19.847656 C 62.875 20.09375 62.882812 20.378906 62.949219 20.625 C 63.113281 21.246094 63.667969 21.605469 64.28125 21.703125 C 64.65625 21.761719 65.027344 21.753906 65.40625 21.726562 C 65.632812 21.714844 65.785156 21.523438 65.734375 21.300781 C 65.511719 20.335938 64.902344 19.484375 64.074219 18.949219 C 63.960938 18.875 63.753906 18.886719 63.660156 19 C 63.574219 19.109375 63.488281 19.21875 63.402344 19.328125 C 63.292969 19.464844 63.257812 19.671875 63.402344 19.804688 C 63.527344 19.917969 63.765625 19.953125 63.882812 19.804688 C 63.96875 19.695312 64.054688 19.585938 64.140625 19.480469 C 64 19.496094 63.867188 19.515625 63.726562 19.53125 C 63.773438 19.5625 63.820312 19.59375 63.867188 19.625 C 63.886719 19.640625 63.910156 19.660156 63.933594 19.675781 C 63.980469 19.710938 63.875 19.625 63.953125 19.695312 C 64.035156 19.761719 64.113281 19.828125 64.191406 19.902344 C 64.265625 19.976562 64.339844 20.054688 64.40625 20.132812 C 64.496094 20.234375 64.507812 20.253906 64.578125 20.355469 C 64.839844 20.730469 64.976562 21.046875 65.074219 21.484375 C 65.183594 21.339844 65.292969 21.199219 65.402344 21.054688 C 65.226562 21.066406 65.058594 21.074219 64.882812 21.074219 C 64.789062 21.074219 64.699219 21.074219 64.601562 21.066406 C 64.570312 21.066406 64.535156 21.0625 64.5 21.058594 C 64.460938 21.054688 64.457031 21.054688 64.488281 21.058594 C 64.46875 21.058594 64.445312 21.054688 64.421875 21.046875 C 64.347656 21.035156 64.269531 21.019531 64.195312 20.996094 C 64.152344 20.980469 64.109375 20.96875 64.066406 20.953125 C 64.027344 20.941406 64.027344 20.9375 64.054688 20.949219 C 64.035156 20.941406 64.015625 20.929688 63.996094 20.917969 C 63.964844 20.902344 63.9375 20.886719 63.90625 20.867188 C 63.894531 20.859375 63.78125 20.78125 63.84375 20.832031 C 63.792969 20.792969 63.757812 20.746094 63.714844 20.703125 C 63.695312 20.683594 63.703125 20.6875 63.730469 20.722656 C 63.722656 20.707031 63.710938 20.695312 63.703125 20.679688 C 63.6875 20.652344 63.667969 20.625 63.652344 20.59375 C 63.648438 20.585938 63.609375 20.496094 63.628906 20.546875 C 63.644531 20.59375 63.613281 20.5 63.609375 20.492188 C 63.601562 20.460938 63.59375 20.429688 63.585938 20.394531 C 63.582031 20.375 63.570312 20.265625 63.578125 20.367188 C 63.574219 20.3125 63.570312 20.253906 63.574219 20.195312 C 63.578125 20.097656 63.5625 20.226562 63.574219 20.167969 C 63.578125 20.148438 63.582031 20.125 63.585938 20.101562 C 63.589844 20.09375 63.605469 20.019531 63.613281 20.019531 C 63.59375 20.066406 63.59375 20.070312 63.605469 20.035156 C 63.609375 20.023438 63.621094 20.011719 63.628906 20 C 63.640625 19.980469 63.652344 19.960938 63.664062 19.941406 C 63.609375 20.023438 63.667969 19.945312 63.683594 19.929688 C 63.710938 19.902344 63.707031 19.910156 63.667969 19.941406 C 63.675781 19.933594 63.691406 19.921875 63.707031 19.914062 C 63.722656 19.902344 63.816406 19.863281 63.730469 19.894531 C 63.894531 19.828125 64.027344 19.667969 63.96875 19.480469 C 63.921875 19.324219 63.730469 19.171875 63.554688 19.242188 Z M 63.554688 19.242188 " fill-opacity="1" fill-rule="nonzero"/><path fill="#259d49" d="M 60.816406 19.621094 C 58.949219 19.210938 57.195312 20.710938 56.15625 22.320312 C 55.808594 22.855469 55.492188 23.464844 55.550781 24.101562 C 55.613281 24.742188 56.21875 25.355469 56.839844 25.195312 C 57.210938 25.101562 57.46875 24.777344 57.769531 24.546875 C 58.074219 24.316406 58.554688 24.195312 58.808594 24.484375 C 58.972656 24.675781 58.960938 24.960938 58.933594 25.210938 C 58.871094 25.746094 58.792969 26.285156 58.703125 26.816406 C 58.496094 28 58.1875 29.203125 57.457031 30.15625 C 56.304688 31.652344 54.359375 32.238281 52.691406 33.125 C 52.523438 33.214844 52.335938 33.339844 52.324219 33.53125 C 52.316406 33.660156 52.394531 33.777344 52.476562 33.882812 C 53.597656 35.277344 55.632812 35.425781 57.421875 35.460938 C 57.683594 35.46875 57.96875 35.46875 58.175781 35.3125 C 58.515625 35.070312 58.535156 34.546875 58.851562 34.28125 C 59.257812 33.9375 59.867188 34.195312 60.359375 34.386719 C 60.855469 34.582031 61.589844 34.59375 61.738281 34.085938 C 61.894531 33.566406 61.257812 33.175781 61.039062 32.679688 C 60.726562 31.980469 61.304688 31.226562 61.835938 30.675781 C 62.144531 31.308594 63.070312 31.441406 63.667969 31.0625 C 64.261719 30.683594 64.554688 29.960938 64.621094 29.261719 C 64.667969 28.777344 64.625 28.265625 64.359375 27.863281 C 64.097656 27.460938 63.652344 27.207031 63.382812 26.8125 C 62.878906 26.074219 63.109375 25.085938 63.253906 24.203125 C 63.402344 23.324219 63.339844 22.222656 62.554688 21.796875 C 61.972656 21.480469 61.128906 21.636719 60.726562 21.105469 C 60.527344 20.847656 60.511719 20.457031 60.695312 20.183594 Z M 60.816406 19.621094 " fill-opacity="1" fill-rule="nonzero"/><path fill="#000000" d="M 60.90625 19.289062 C 59.558594 19.023438 58.3125 19.574219 57.308594 20.453125 C 56.796875 20.898438 56.355469 21.421875 55.976562 21.980469 C 55.582031 22.558594 55.199219 23.230469 55.207031 23.949219 C 55.210938 24.558594 55.554688 25.160156 56.105469 25.425781 C 56.710938 25.71875 57.25 25.429688 57.714844 25.027344 C 57.921875 24.851562 58.460938 24.367188 58.597656 24.867188 C 58.695312 25.226562 58.515625 25.800781 58.460938 26.160156 C 58.34375 26.941406 58.199219 27.726562 57.941406 28.476562 C 57.441406 29.929688 56.417969 30.863281 55.089844 31.570312 C 54.472656 31.898438 53.835938 32.175781 53.207031 32.476562 C 52.75 32.695312 51.96875 32.945312 51.984375 33.570312 C 52 34.132812 52.707031 34.636719 53.140625 34.90625 C 53.660156 35.226562 54.25 35.433594 54.839844 35.554688 C 55.484375 35.691406 56.144531 35.75 56.796875 35.777344 C 57.390625 35.800781 58.125 35.910156 58.554688 35.40625 C 58.753906 35.179688 58.800781 34.871094 58.980469 34.636719 C 59.25 34.289062 59.75 34.511719 60.089844 34.640625 C 60.609375 34.839844 61.285156 34.996094 61.765625 34.609375 C 62.296875 34.183594 62.085938 33.542969 61.730469 33.085938 C 61.492188 32.785156 61.230469 32.507812 61.304688 32.09375 C 61.390625 31.632812 61.753906 31.238281 62.066406 30.90625 C 61.890625 30.886719 61.710938 30.859375 61.53125 30.839844 C 62.050781 31.765625 63.34375 31.808594 64.09375 31.148438 C 64.925781 30.414062 65.226562 28.917969 64.765625 27.914062 C 64.488281 27.3125 63.835938 27.027344 63.558594 26.445312 C 63.261719 25.820312 63.441406 25.066406 63.550781 24.421875 C 63.714844 23.449219 63.753906 22.164062 62.8125 21.554688 C 62.304688 21.226562 61.597656 21.359375 61.125 21.019531 C 60.734375 20.746094 61.050781 20.105469 61.140625 19.707031 C 61.238281 19.28125 60.582031 19.101562 60.488281 19.527344 C 60.332031 20.226562 59.972656 20.972656 60.664062 21.519531 C 61.023438 21.808594 61.492188 21.84375 61.925781 21.9375 C 62.472656 22.058594 62.800781 22.359375 62.921875 22.914062 C 63.148438 23.988281 62.597656 25.046875 62.765625 26.128906 C 62.84375 26.652344 63.105469 27.070312 63.484375 27.433594 C 63.972656 27.902344 64.308594 28.273438 64.292969 28.988281 C 64.28125 29.585938 64.09375 30.273438 63.621094 30.667969 C 63.175781 31.035156 62.421875 31.035156 62.121094 30.496094 C 62.015625 30.308594 61.738281 30.269531 61.589844 30.425781 C 61.171875 30.867188 60.738281 31.382812 60.632812 32 C 60.535156 32.578125 60.800781 32.992188 61.144531 33.429688 C 61.285156 33.605469 61.558594 33.902344 61.3125 34.097656 C 61.125 34.246094 60.738281 34.148438 60.539062 34.085938 C 60.023438 33.921875 59.507812 33.644531 58.953125 33.828125 C 58.730469 33.902344 58.546875 34.0625 58.414062 34.253906 C 58.269531 34.464844 58.214844 34.769531 58.042969 34.953125 C 57.816406 35.1875 57.402344 35.117188 57.105469 35.105469 C 56.792969 35.097656 56.480469 35.082031 56.167969 35.058594 C 55.011719 34.96875 53.746094 34.722656 52.90625 33.855469 C 52.789062 33.738281 52.621094 33.625 52.75 33.464844 C 52.816406 33.390625 52.996094 33.332031 53.082031 33.289062 C 53.375 33.140625 53.667969 33.003906 53.960938 32.863281 C 54.53125 32.597656 55.105469 32.335938 55.65625 32.03125 C 56.730469 31.433594 57.671875 30.640625 58.230469 29.527344 C 58.847656 28.292969 59.058594 26.878906 59.226562 25.523438 C 59.292969 25 59.367188 24.335938 58.800781 24.054688 C 58.300781 23.8125 57.761719 24.101562 57.378906 24.421875 C 57.101562 24.65625 56.804688 24.988281 56.410156 24.816406 C 56.050781 24.65625 55.867188 24.25 55.882812 23.875 C 55.917969 23.097656 56.503906 22.328125 56.984375 21.75 C 57.890625 20.660156 59.226562 19.648438 60.722656 19.941406 C 61.152344 20.027344 61.335938 19.375 60.90625 19.289062 Z M 60.90625 19.289062 " fill-opacity="1" fill-rule="nonzero"/><path fill="#259d49" d="M 64.089844 55.21875 C 63.65625 54.824219 62.925781 54.828125 62.5 55.226562 C 62.074219 55.625 62.023438 56.355469 62.386719 56.8125 C 62.828125 57.363281 63.628906 57.402344 64.300781 57.617188 C 64.972656 57.828125 65.648438 58.582031 65.253906 59.164062 C 65.039062 59.492188 64.59375 59.570312 64.199219 59.578125 C 63.71875 60.160156 64.113281 61.074219 64.699219 61.546875 C 65.289062 62.019531 66.042969 62.273438 66.570312 62.8125 C 66.8125 63.054688 67.078125 63.382812 67.410156 63.3125 C 67.523438 63.285156 67.621094 63.214844 67.707031 63.136719 C 68.308594 62.582031 68.382812 61.675781 68.371094 60.863281 C 68.351562 59.570312 68.167969 58.1875 67.324219 57.207031 C 66.351562 56.074219 64.765625 55.746094 63.296875 55.480469 Z M 64.089844 55.21875 " fill-opacity="1" fill-rule="nonzero"/><path fill="#000000" d="M 64.328125 54.980469 C 63.675781 54.441406 62.660156 54.449219 62.117188 55.152344 C 61.59375 55.835938 61.757812 56.835938 62.449219 57.332031 C 63.175781 57.855469 64.398438 57.660156 64.917969 58.472656 C 65.300781 59.070312 64.625 59.171875 64.203125 59.246094 C 63.820312 59.3125 63.664062 59.796875 63.648438 60.144531 C 63.609375 61.074219 64.320312 61.761719 65.050781 62.199219 C 65.492188 62.46875 65.964844 62.691406 66.332031 63.054688 C 66.636719 63.355469 66.945312 63.707031 67.414062 63.652344 C 68.308594 63.546875 68.625 62.304688 68.691406 61.578125 C 68.78125 60.601562 68.695312 59.523438 68.417969 58.582031 C 68.105469 57.523438 67.453125 56.648438 66.484375 56.101562 C 65.539062 55.5625 64.449219 55.347656 63.386719 55.15625 C 63.386719 55.371094 63.386719 55.589844 63.386719 55.808594 C 63.652344 55.722656 63.917969 55.632812 64.179688 55.546875 C 64.59375 55.410156 64.414062 54.757812 64 54.894531 C 63.734375 54.980469 63.46875 55.070312 63.207031 55.15625 C 62.914062 55.25 62.855469 55.742188 63.207031 55.808594 C 64.390625 56.019531 65.699219 56.246094 66.660156 57.03125 C 67.722656 57.898438 67.984375 59.304688 68.027344 60.605469 C 68.046875 61.203125 68.0625 61.863281 67.8125 62.417969 C 67.699219 62.667969 67.480469 63.046875 67.175781 62.925781 C 66.921875 62.820312 66.6875 62.445312 66.464844 62.277344 C 65.957031 61.894531 65.332031 61.667969 64.859375 61.242188 C 64.453125 60.875 64.125 60.253906 64.492188 59.757812 C 64.394531 59.8125 64.296875 59.867188 64.199219 59.925781 C 64.84375 59.898438 65.59375 59.671875 65.699219 58.929688 C 65.792969 58.226562 65.171875 57.621094 64.578125 57.367188 C 63.980469 57.113281 63.011719 57.160156 62.617188 56.5625 C 62.09375 55.769531 63.125 54.867188 63.851562 55.464844 C 64.183594 55.734375 64.667969 55.257812 64.328125 54.980469 Z M 64.328125 54.980469 " fill-opacity="1" fill-rule="nonzero"/><path fill="#259d49" d="M 19.230469 52.148438 C 16.628906 58.671875 15.582031 65.832031 15.722656 72.855469 C 15.792969 76.183594 16.308594 79.507812 17.253906 82.703125 C 17.578125 82.03125 17.90625 81.359375 18.226562 80.6875 C 19.183594 84.46875 20.164062 88.316406 22.25 91.613281 C 24.335938 94.90625 27.746094 97.609375 31.640625 97.816406 C 33.121094 97.898438 34.8125 97.691406 35.882812 98.714844 C 36.425781 99.234375 36.683594 99.976562 37.101562 100.597656 C 38.425781 102.570312 41.046875 103.054688 43.226562 104 C 45.402344 104.945312 47.535156 107.371094 46.402344 109.457031 C 45.84375 110.484375 44.632812 111.058594 44.15625 112.128906 C 43.238281 114.195312 45.515625 116.171875 46.316406 118.285156 C 46.882812 119.792969 46.695312 121.539062 47.445312 122.964844 C 48.550781 125.066406 51.203125 125.699219 53.160156 127.046875 C 58.4375 130.6875 58.375 139.378906 63.902344 142.632812 C 66.136719 143.953125 68.867188 144.074219 71.457031 143.992188 C 70.121094 142.621094 68.789062 141.25 67.453125 139.875 C 66.953125 139.363281 66.433594 138.8125 66.261719 138.113281 C 66.113281 137.503906 66.25 136.867188 66.390625 136.253906 C 66.761719 134.609375 67.132812 132.964844 67.503906 131.320312 C 68.191406 128.292969 68.988281 125.070312 71.277344 122.980469 C 73.496094 120.960938 77 120.089844 78.039062 117.277344 C 79.234375 114.042969 76.246094 110.808594 73.28125 109.042969 C 70.835938 107.589844 68.214844 106.46875 65.59375 105.347656 C 60.402344 103.128906 55.210938 100.910156 50.011719 98.691406 C 46.941406 99.984375 43.476562 100.320312 40.21875 99.632812 C 39.699219 99.527344 39.148438 99.367188 38.828125 98.941406 C 38.507812 98.523438 38.503906 97.957031 38.378906 97.445312 C 38.023438 95.949219 36.457031 94.847656 34.929688 95.015625 C 35.707031 94.308594 36.207031 93.179688 35.839844 92.199219 C 35.472656 91.21875 34 90.738281 33.3125 91.53125 C 33.832031 93.003906 31.972656 94.65625 30.570312 93.96875 C 28.417969 92.910156 29.675781 89.507812 28.613281 87.359375 C 28.117188 86.351562 27.042969 85.382812 27.433594 84.328125 C 27.75 83.484375 28.8125 83.25 29.710938 83.167969 C 31.589844 82.992188 33.484375 82.945312 35.371094 83.027344 C 35.964844 83.050781 36.582031 83.097656 37.074219 83.421875 C 37.996094 84.03125 38.101562 85.304688 38.4375 86.351562 C 38.773438 87.402344 39.929688 88.472656 40.84375 87.859375 C 38.527344 83.414062 40.285156 77.292969 44.605469 74.75 C 43.707031 73.746094 44.160156 72.089844 45.050781 71.070312 C 45.9375 70.050781 47.167969 69.375 48.035156 68.339844 C 49.023438 67.160156 49.464844 65.625 50.257812 64.3125 C 51.054688 62.996094 52.496094 61.820312 53.996094 62.160156 C 53.988281 63.210938 54.359375 64.261719 55.023438 65.078125 C 55.160156 64.476562 55.300781 63.878906 55.441406 63.277344 C 56.167969 63.289062 56.941406 63.292969 57.5625 62.90625 C 58.179688 62.523438 58.519531 61.601562 58.050781 61.046875 C 57.675781 60.605469 57.015625 60.59375 56.4375 60.511719 C 55.238281 60.339844 54.152344 59.714844 52.964844 59.464844 C 51.777344 59.210938 50.3125 59.488281 49.792969 60.582031 C 51.789062 57.578125 54.90625 55.335938 58.394531 54.398438 C 59.894531 53.996094 61.488281 53.816406 62.84375 53.050781 C 64.195312 52.285156 65.265625 50.683594 64.773438 49.207031 C 64.320312 47.832031 62.808594 47.179688 61.628906 46.34375 C 60.449219 45.507812 59.492188 43.753906 60.484375 42.699219 C 58.269531 41.40625 55.585938 40.082031 53.273438 41.183594 C 53.753906 39.859375 53.648438 38.214844 52.628906 37.238281 C 51.609375 36.261719 49.605469 36.433594 49.074219 37.742188 C 48.777344 38.476562 48.988281 39.300781 49.050781 40.089844 C 49.300781 43.125 47.035156 46.164062 44.058594 46.789062 C 44.898438 47.851562 45.777344 48.996094 45.890625 50.34375 C 46.007812 51.6875 44.988281 53.222656 43.640625 53.101562 C 42.308594 52.980469 41.601562 51.460938 41.402344 50.136719 C 41.203125 48.8125 41.195312 47.332031 40.273438 46.363281 C 39.753906 45.816406 39 45.511719 38.546875 44.910156 C 37.566406 43.617188 38.414062 41.761719 39.398438 40.46875 C 42.585938 36.285156 47.0625 33.277344 51.648438 30.707031 C 52.222656 30.386719 52.828125 30.042969 53.148438 29.472656 C 53.472656 28.902344 53.367188 28.03125 52.761719 27.769531 C 52.007812 27.441406 50.851562 28.132812 50.4375 27.417969 C 51.390625 24.765625 52.050781 22.003906 52.402344 19.203125 C 52.414062 19.203125 29.425781 26.539062 19.230469 52.148438 Z M 19.230469 52.148438 " fill-opacity="1" fill-rule="nonzero"/><path fill="#000000" d="M 18.902344 52.054688 C 17.410156 55.835938 16.425781 59.792969 15.882812 63.816406 C 15.347656 67.808594 15.160156 71.925781 15.574219 75.9375 C 15.816406 78.261719 16.273438 80.550781 16.925781 82.789062 C 17.003906 83.054688 17.414062 83.144531 17.546875 82.871094 C 17.871094 82.199219 18.195312 81.527344 18.519531 80.855469 C 18.3125 80.828125 18.105469 80.800781 17.898438 80.777344 C 19.511719 87.167969 21.671875 94.660156 28.386719 97.410156 C 29.847656 98.011719 31.308594 98.148438 32.871094 98.1875 C 33.679688 98.207031 34.574219 98.238281 35.285156 98.675781 C 36.054688 99.15625 36.328125 100.050781 36.808594 100.769531 C 38.585938 103.402344 42.085938 103.316406 44.445312 105.109375 C 45.664062 106.03125 46.949219 107.714844 46.109375 109.285156 C 45.425781 110.566406 43.890625 111.128906 43.640625 112.6875 C 43.410156 114.109375 44.3125 115.421875 45.019531 116.566406 C 45.449219 117.265625 45.886719 117.976562 46.117188 118.773438 C 46.375 119.65625 46.429688 120.574219 46.601562 121.472656 C 46.890625 122.957031 47.625 124.105469 48.855469 124.980469 C 50.078125 125.855469 51.507812 126.375 52.765625 127.191406 C 55.039062 128.667969 56.335938 131.140625 57.425781 133.539062 C 58.507812 135.925781 59.4375 138.445312 61.0625 140.53125 C 62.988281 143 65.722656 144.101562 68.804688 144.304688 C 69.6875 144.359375 70.570312 144.355469 71.453125 144.332031 C 71.746094 144.324219 71.902344 143.964844 71.695312 143.753906 C 70.527344 142.550781 69.359375 141.351562 68.191406 140.148438 C 67.734375 139.679688 67.203125 139.214844 66.859375 138.652344 C 66.320312 137.761719 66.605469 136.816406 66.816406 135.871094 C 67.464844 133 67.949219 130.015625 68.96875 127.25 C 69.433594 125.992188 70.0625 124.761719 70.96875 123.761719 C 71.765625 122.886719 72.75 122.246094 73.757812 121.636719 C 75.550781 120.550781 77.59375 119.457031 78.359375 117.367188 C 79.25 114.941406 77.863281 112.507812 76.164062 110.832031 C 74.089844 108.789062 71.347656 107.523438 68.722656 106.34375 C 65.699219 104.980469 62.628906 103.714844 59.574219 102.410156 C 58.046875 101.757812 56.523438 101.105469 54.992188 100.453125 C 53.433594 99.785156 51.882812 99.035156 50.292969 98.445312 C 49.964844 98.320312 49.839844 98.402344 49.507812 98.527344 C 49.09375 98.6875 48.671875 98.835938 48.246094 98.960938 C 47.46875 99.191406 46.667969 99.367188 45.863281 99.480469 C 44.09375 99.730469 42.273438 99.691406 40.523438 99.347656 C 39.609375 99.167969 39.011719 98.929688 38.8125 97.9375 C 38.671875 97.238281 38.515625 96.640625 38.066406 96.066406 C 37.320312 95.117188 36.132812 94.578125 34.929688 94.675781 C 35.007812 94.867188 35.089844 95.058594 35.167969 95.253906 C 36.09375 94.363281 36.78125 92.777344 35.898438 91.617188 C 35.238281 90.75 33.878906 90.472656 33.074219 91.285156 C 32.992188 91.371094 32.953125 91.5 32.984375 91.617188 C 33.269531 92.570312 32.507812 93.554688 31.570312 93.753906 C 30.625 93.949219 29.945312 93.175781 29.710938 92.347656 C 29.265625 90.757812 29.664062 89.027344 29.03125 87.46875 C 28.683594 86.613281 27.699219 85.777344 27.6875 84.820312 C 27.671875 83.613281 29.347656 83.527344 30.203125 83.457031 C 31.554688 83.347656 32.90625 83.304688 34.261719 83.328125 C 35.46875 83.347656 36.914062 83.210938 37.515625 84.488281 C 37.964844 85.4375 37.953125 86.53125 38.609375 87.390625 C 39.1875 88.144531 40.105469 88.664062 41.011719 88.148438 C 41.175781 88.054688 41.214844 87.847656 41.132812 87.683594 C 38.925781 83.34375 40.601562 77.546875 44.773438 75.039062 C 44.972656 74.917969 44.976562 74.671875 44.839844 74.503906 C 43.894531 73.339844 44.796875 71.738281 45.703125 70.867188 C 46.628906 69.976562 47.738281 69.300781 48.519531 68.257812 C 49.339844 67.160156 49.761719 65.835938 50.441406 64.65625 C 51.136719 63.453125 52.390625 62.203125 53.902344 62.480469 C 53.820312 62.371094 53.734375 62.261719 53.652344 62.152344 C 53.667969 63.328125 54.058594 64.386719 54.78125 65.308594 C 54.9375 65.511719 55.292969 65.390625 55.347656 65.160156 C 55.484375 64.558594 55.625 63.960938 55.765625 63.359375 C 55.65625 63.445312 55.546875 63.527344 55.4375 63.609375 C 56.625 63.625 58.148438 63.488281 58.539062 62.125 C 58.910156 60.820312 57.761719 60.34375 56.703125 60.199219 C 55.199219 59.996094 53.855469 59.105469 52.328125 59.035156 C 51.21875 58.984375 50.042969 59.375 49.5 60.402344 C 49.296875 60.792969 49.84375 61.105469 50.085938 60.746094 C 51.210938 59.082031 52.660156 57.652344 54.347656 56.5625 C 56.078125 55.449219 57.941406 54.824219 59.933594 54.375 C 61.757812 53.964844 63.667969 53.40625 64.703125 51.714844 C 65.617188 50.222656 65.242188 48.578125 63.921875 47.492188 C 63.152344 46.859375 62.203125 46.449219 61.476562 45.773438 C 60.757812 45.113281 59.957031 43.835938 60.722656 42.933594 C 60.859375 42.769531 60.855469 42.519531 60.652344 42.398438 C 58.398438 41.09375 55.695312 39.730469 53.101562 40.886719 C 53.269531 41.011719 53.433594 41.140625 53.601562 41.265625 C 54.117188 39.761719 54 37.746094 52.582031 36.753906 C 51.488281 35.992188 49.660156 36.101562 48.914062 37.3125 C 48.390625 38.164062 48.644531 39.15625 48.714844 40.082031 C 48.792969 41.074219 48.609375 42.0625 48.195312 42.964844 C 47.394531 44.703125 45.847656 46.027344 43.972656 46.453125 C 43.699219 46.515625 43.679688 46.835938 43.824219 47.019531 C 44.859375 48.332031 46.257812 50.207031 45.167969 51.894531 C 44.714844 52.59375 43.878906 53.015625 43.09375 52.574219 C 42.421875 52.195312 42.0625 51.394531 41.871094 50.683594 C 41.46875 49.203125 41.699219 47.503906 40.644531 46.253906 C 40.101562 45.609375 39.195312 45.300781 38.742188 44.578125 C 38.234375 43.765625 38.492188 42.753906 38.878906 41.949219 C 39.644531 40.34375 41.03125 38.957031 42.296875 37.734375 C 43.636719 36.441406 45.097656 35.277344 46.625 34.210938 C 48.125 33.164062 49.691406 32.210938 51.277344 31.304688 C 52.382812 30.679688 54.160156 29.78125 53.578125 28.195312 C 53.328125 27.519531 52.703125 27.300781 52.03125 27.339844 C 51.816406 27.351562 51.109375 27.546875 50.9375 27.390625 C 50.71875 27.191406 51.242188 26.113281 51.332031 25.832031 C 51.996094 23.664062 52.460938 21.449219 52.746094 19.203125 C 52.773438 18.984375 52.507812 18.816406 52.316406 18.875 C 49.347656 19.828125 46.492188 21.351562 43.820312 22.9375 C 37.386719 26.75 31.660156 31.773438 27.078125 37.6875 C 23.691406 42.066406 20.960938 46.914062 18.902344 52.054688 C 18.738281 52.460938 19.394531 52.636719 19.554688 52.234375 C 22.957031 43.738281 28.304688 36.113281 35.171875 30.0625 C 39.488281 26.253906 44.378906 23.027344 49.632812 20.671875 C 50.570312 20.253906 51.523438 19.839844 52.507812 19.527344 C 52.363281 19.421875 52.222656 19.308594 52.078125 19.203125 C 51.785156 21.503906 51.285156 23.777344 50.578125 25.992188 C 50.375 26.632812 49.742188 27.550781 50.566406 27.96875 C 51.226562 28.304688 52.046875 27.753906 52.667969 28.109375 C 53.144531 28.378906 53.046875 29.035156 52.789062 29.421875 C 52.480469 29.878906 51.960938 30.148438 51.496094 30.414062 C 50.605469 30.914062 49.722656 31.425781 48.855469 31.957031 C 47.183594 32.984375 45.558594 34.09375 44.027344 35.324219 C 42.449219 36.59375 40.976562 37.996094 39.691406 39.566406 C 38.679688 40.800781 37.507812 42.40625 37.839844 44.109375 C 38.003906 44.9375 38.574219 45.472656 39.226562 45.945312 C 40.144531 46.601562 40.617188 47.277344 40.835938 48.394531 C 41.128906 49.925781 41.0625 51.707031 42.324219 52.84375 C 43.632812 54.027344 45.386719 53.257812 46.003906 51.761719 C 46.804688 49.835938 45.457031 47.996094 44.3125 46.546875 C 44.265625 46.734375 44.214844 46.925781 44.164062 47.113281 C 47.113281 46.449219 49.390625 43.648438 49.425781 40.617188 C 49.433594 39.71875 49.019531 38.628906 49.445312 37.785156 C 49.792969 37.085938 50.675781 36.863281 51.394531 36.992188 C 53.277344 37.324219 53.464844 39.621094 52.960938 41.09375 C 52.855469 41.40625 53.210938 41.585938 53.457031 41.476562 C 55.785156 40.441406 58.328125 41.828125 60.324219 42.992188 C 60.304688 42.8125 60.277344 42.636719 60.253906 42.457031 C 59.164062 43.75 60.066406 45.492188 61.203125 46.425781 C 62.515625 47.507812 65.003906 48.332031 64.507812 50.488281 C 63.996094 52.726562 61.480469 53.339844 59.5625 53.777344 C 57.621094 54.210938 55.785156 54.863281 54.101562 55.933594 C 52.277344 57.09375 50.722656 58.621094 49.515625 60.410156 C 49.710938 60.523438 49.90625 60.636719 50.101562 60.753906 C 51.125 58.8125 53.75 60.074219 55.226562 60.554688 C 55.6875 60.703125 56.148438 60.808594 56.628906 60.871094 C 57.097656 60.933594 57.800781 60.964844 57.933594 61.535156 C 58.046875 62.023438 57.636719 62.507812 57.230469 62.707031 C 56.691406 62.972656 56.042969 62.945312 55.453125 62.9375 C 55.3125 62.933594 55.160156 63.042969 55.128906 63.1875 C 54.992188 63.785156 54.851562 64.386719 54.710938 64.984375 C 54.898438 64.9375 55.089844 64.886719 55.277344 64.835938 C 54.671875 64.058594 54.363281 63.140625 54.347656 62.160156 C 54.347656 62.019531 54.246094 61.855469 54.101562 61.832031 C 52.582031 61.554688 51.257812 62.421875 50.359375 63.589844 C 49.332031 64.925781 48.949219 66.640625 47.914062 67.96875 C 46.914062 69.246094 45.34375 69.964844 44.449219 71.332031 C 43.722656 72.445312 43.5 73.910156 44.382812 74.992188 C 44.40625 74.8125 44.429688 74.636719 44.453125 74.457031 C 39.957031 77.164062 38.191406 83.359375 40.570312 88.03125 C 40.609375 87.875 40.648438 87.722656 40.691406 87.566406 C 39.984375 87.96875 39.285156 87.253906 38.964844 86.671875 C 38.660156 86.125 38.585938 85.472656 38.402344 84.882812 C 38.082031 83.839844 37.496094 83.007812 36.367188 82.785156 C 34.953125 82.507812 33.375 82.625 31.941406 82.679688 C 30.722656 82.726562 29.261719 82.664062 28.128906 83.199219 C 27.234375 83.621094 26.820312 84.535156 27.15625 85.472656 C 27.535156 86.539062 28.390625 87.300781 28.632812 88.433594 C 28.996094 90.136719 28.417969 92.535156 29.835938 93.855469 C 31.488281 95.398438 34.289062 93.5625 33.660156 91.4375 C 33.628906 91.550781 33.601562 91.660156 33.570312 91.769531 C 34.132812 91.199219 35.117188 91.527344 35.472656 92.175781 C 35.96875 93.074219 35.355469 94.148438 34.707031 94.773438 C 34.503906 94.964844 34.648438 95.375 34.945312 95.347656 C 36.25 95.246094 37.566406 96.019531 38 97.285156 C 38.183594 97.824219 38.160156 98.433594 38.445312 98.945312 C 38.71875 99.425781 39.199219 99.691406 39.710938 99.847656 C 42.398438 100.660156 45.570312 100.433594 48.238281 99.675781 C 48.59375 99.574219 48.945312 99.460938 49.292969 99.335938 C 49.605469 99.226562 49.882812 99.050781 50.203125 99.128906 C 50.550781 99.210938 50.902344 99.425781 51.234375 99.566406 C 51.695312 99.761719 52.152344 99.960938 52.609375 100.15625 C 54.136719 100.808594 55.664062 101.460938 57.191406 102.117188 C 60.222656 103.410156 63.257812 104.703125 66.289062 106.003906 C 69.042969 107.1875 71.957031 108.363281 74.375 110.167969 C 76.453125 111.722656 78.777344 114.402344 77.726562 117.1875 C 76.914062 119.34375 74.523438 120.335938 72.714844 121.496094 C 70.652344 122.816406 69.277344 124.601562 68.402344 126.886719 C 67.867188 128.292969 67.523438 129.761719 67.191406 131.226562 C 66.792969 132.984375 66.355469 134.742188 66 136.507812 C 65.851562 137.234375 65.792969 137.964844 66.105469 138.652344 C 66.398438 139.289062 66.910156 139.789062 67.390625 140.285156 C 68.671875 141.601562 69.953125 142.914062 71.230469 144.230469 C 71.3125 144.039062 71.390625 143.847656 71.472656 143.652344 C 68.136719 143.746094 64.695312 143.429688 62.269531 140.882812 C 60.457031 138.980469 59.464844 136.445312 58.421875 134.078125 C 57.410156 131.792969 56.324219 129.421875 54.480469 127.675781 C 53.46875 126.714844 52.253906 126.089844 51.027344 125.457031 C 49.714844 124.777344 48.300781 124.015625 47.660156 122.605469 C 46.941406 121.027344 47.164062 119.203125 46.410156 117.617188 C 45.765625 116.265625 44.546875 115.015625 44.320312 113.496094 C 44.078125 111.824219 45.703125 111.097656 46.523438 109.921875 C 47.316406 108.796875 47.160156 107.40625 46.460938 106.277344 C 45.703125 105.054688 44.484375 104.152344 43.167969 103.605469 C 41.757812 103.015625 40.242188 102.628906 38.929688 101.824219 C 38.28125 101.425781 37.714844 100.921875 37.308594 100.273438 C 36.894531 99.613281 36.609375 98.871094 36 98.355469 C 34.90625 97.429688 33.367188 97.535156 32.027344 97.496094 C 28.292969 97.378906 25.066406 95.054688 22.972656 92.070312 C 20.589844 88.675781 19.566406 84.558594 18.566406 80.597656 C 18.496094 80.328125 18.078125 80.246094 17.945312 80.515625 C 17.625 81.1875 17.296875 81.859375 16.972656 82.53125 C 17.179688 82.558594 17.386719 82.585938 17.59375 82.609375 C 15.335938 74.90625 15.675781 66.441406 17.53125 58.683594 C 18.058594 56.488281 18.738281 54.335938 19.566406 52.234375 C 19.714844 51.832031 19.058594 51.65625 18.902344 52.054688 Z M 18.902344 52.054688 " fill-opacity="1" fill-rule="nonzero"/><path fill="#259d49" d="M 40.164062 89.78125 C 41.054688 90.402344 41.625 91.464844 41.644531 92.550781 C 41.648438 92.75 41.644531 92.980469 41.785156 93.125 C 41.902344 93.242188 42.078125 93.265625 42.242188 93.269531 C 43.601562 93.296875 44.785156 92.402344 45.84375 91.550781 C 45.964844 91.453125 46.101562 91.332031 46.121094 91.175781 C 46.167969 90.804688 45.636719 90.695312 45.265625 90.632812 C 44.410156 90.480469 43.765625 89.792969 43 89.390625 C 42.230469 88.988281 41.023438 89.054688 40.777344 89.886719 Z M 40.164062 89.78125 " fill-opacity="1" fill-rule="nonzero"/><path fill="#000000" d="M 39.992188 90.074219 C 40.472656 90.417969 40.851562 90.902344 41.074219 91.449219 C 41.183594 91.710938 41.257812 91.996094 41.289062 92.277344 C 41.320312 92.558594 41.277344 92.847656 41.386719 93.113281 C 41.628906 93.714844 42.394531 93.640625 42.917969 93.554688 C 43.527344 93.449219 44.105469 93.179688 44.628906 92.859375 C 45.15625 92.53125 45.683594 92.15625 46.144531 91.742188 C 46.535156 91.398438 46.582031 90.839844 46.109375 90.546875 C 45.914062 90.425781 45.683594 90.371094 45.460938 90.328125 C 45.164062 90.269531 44.898438 90.1875 44.628906 90.039062 C 44.113281 89.75 43.667969 89.347656 43.140625 89.085938 C 42.234375 88.640625 40.824219 88.6875 40.457031 89.800781 C 40.59375 89.71875 40.734375 89.640625 40.871094 89.5625 C 40.667969 89.527344 40.464844 89.492188 40.257812 89.457031 C 39.832031 89.386719 39.644531 90.039062 40.078125 90.109375 C 40.28125 90.144531 40.484375 90.179688 40.691406 90.214844 C 40.882812 90.246094 41.046875 90.167969 41.109375 89.976562 C 41.34375 89.265625 42.421875 89.457031 42.914062 89.726562 C 43.339844 89.960938 43.71875 90.273438 44.132812 90.523438 C 44.53125 90.769531 44.9375 90.898438 45.390625 90.996094 C 45.453125 91.011719 45.789062 91.066406 45.796875 91.144531 C 45.804688 91.210938 45.398438 91.484375 45.335938 91.53125 C 44.921875 91.855469 44.496094 92.167969 44.035156 92.421875 C 43.589844 92.667969 43.101562 92.867188 42.59375 92.917969 C 42.425781 92.933594 42.082031 93.003906 42.007812 92.8125 C 41.929688 92.617188 41.980469 92.3125 41.953125 92.097656 C 41.804688 91.039062 41.207031 90.105469 40.34375 89.488281 C 39.980469 89.234375 39.640625 89.824219 39.992188 90.074219 Z M 39.992188 90.074219 " fill-opacity="1" fill-rule="nonzero"/><path fill="#259d49" d="M 46.441406 94.515625 C 46.402344 94.171875 45.777344 94.4375 45.875 94.769531 C 45.972656 95.101562 46.378906 95.210938 46.722656 95.253906 C 47.5 95.347656 48.289062 95.359375 49.070312 95.292969 C 49.386719 95.265625 49.722656 95.21875 49.976562 95.027344 C 50.230469 94.839844 50.375 94.457031 50.199219 94.1875 C 50.652344 94.1875 51.128906 94.175781 51.515625 93.941406 C 51.898438 93.703125 52.121094 93.148438 51.855469 92.78125 C 51.675781 92.53125 51.335938 92.453125 51.027344 92.394531 C 50.21875 92.242188 49.414062 92.09375 48.609375 91.941406 C 48.269531 91.878906 47.902344 91.816406 47.59375 91.972656 C 46.664062 92.429688 47.289062 94.023438 46.585938 94.777344 Z M 46.441406 94.515625 " fill-opacity="1" fill-rule="nonzero"/><path fill="#000000" d="M 46.769531 94.421875 C 46.621094 93.773438 45.710938 93.996094 45.550781 94.519531 C 45.328125 95.25 46.25 95.535156 46.777344 95.597656 C 47.667969 95.707031 48.652344 95.753906 49.539062 95.574219 C 50.246094 95.429688 50.878906 94.753906 50.492188 94.019531 C 50.394531 94.1875 50.292969 94.359375 50.199219 94.527344 C 50.984375 94.527344 51.894531 94.410156 52.222656 93.578125 C 52.351562 93.25 52.335938 92.871094 52.117188 92.578125 C 51.890625 92.269531 51.519531 92.148438 51.15625 92.078125 C 50.664062 91.980469 50.171875 91.890625 49.675781 91.800781 C 49.1875 91.710938 48.6875 91.578125 48.191406 91.542969 C 47.46875 91.492188 46.921875 91.910156 46.757812 92.601562 C 46.617188 93.199219 46.773438 94.046875 46.34375 94.535156 C 46.519531 94.558594 46.695312 94.585938 46.875 94.605469 C 46.828125 94.519531 46.777344 94.425781 46.730469 94.339844 C 46.519531 93.957031 45.933594 94.296875 46.144531 94.679688 C 46.191406 94.769531 46.242188 94.859375 46.289062 94.949219 C 46.390625 95.132812 46.679688 95.179688 46.824219 95.019531 C 47.25 94.535156 47.289062 93.914062 47.339844 93.296875 C 47.363281 93.042969 47.378906 92.75 47.503906 92.515625 C 47.695312 92.15625 48.113281 92.195312 48.464844 92.257812 C 48.960938 92.347656 49.460938 92.445312 49.953125 92.539062 C 50.398438 92.621094 50.886719 92.664062 51.3125 92.8125 C 51.695312 92.949219 51.703125 93.308594 51.425781 93.574219 C 51.113281 93.867188 50.59375 93.847656 50.195312 93.847656 C 49.929688 93.847656 49.785156 94.128906 49.902344 94.355469 C 50.09375 94.714844 49.496094 94.894531 49.261719 94.929688 C 48.792969 95 48.300781 95 47.828125 94.988281 C 47.40625 94.976562 46.953125 94.976562 46.542969 94.871094 C 46.402344 94.835938 46.300781 94.796875 46.207031 94.695312 C 46.191406 94.652344 46.183594 94.664062 46.1875 94.726562 C 46.191406 94.714844 46.203125 94.707031 46.210938 94.703125 C 46.222656 94.699219 46.230469 94.691406 46.242188 94.6875 C 46.296875 94.660156 46.253906 94.632812 46.109375 94.59375 C 46.210938 95.027344 46.863281 94.847656 46.769531 94.421875 Z M 46.769531 94.421875 " fill-opacity="1" fill-rule="nonzero"/><path fill="#259d49" d="M 108.730469 55.503906 C 108.3125 55.546875 107.917969 55.308594 107.609375 55.023438 C 106.496094 54.015625 106.035156 52.339844 106.476562 50.902344 C 106.5625 50.621094 106.6875 50.339844 106.894531 50.128906 C 107.648438 49.363281 109.085938 49.988281 109.460938 50.996094 C 109.835938 52.007812 109.496094 53.128906 109.125 54.140625 Z M 108.730469 55.503906 " fill-opacity="1" fill-rule="nonzero"/><path fill="#000000" d="M 108.730469 55.164062 C 108.226562 55.191406 107.820312 54.800781 107.519531 54.445312 C 107.207031 54.078125 106.972656 53.640625 106.828125 53.183594 C 106.6875 52.734375 106.628906 52.265625 106.65625 51.792969 C 106.683594 51.332031 106.785156 50.757812 107.101562 50.402344 C 107.621094 49.816406 108.558594 50.25 108.953125 50.769531 C 109.636719 51.667969 109.167969 53.011719 108.832031 53.957031 C 108.664062 54.433594 108.542969 54.929688 108.40625 55.417969 C 108.285156 55.835938 108.9375 56.015625 109.058594 55.597656 C 109.226562 55.015625 109.390625 54.429688 109.585938 53.855469 C 109.984375 52.683594 110.269531 51.183594 109.339844 50.183594 C 108.699219 49.492188 107.527344 49.144531 106.746094 49.804688 C 106.28125 50.199219 106.097656 50.851562 106.015625 51.433594 C 105.9375 52.015625 105.972656 52.609375 106.125 53.179688 C 106.289062 53.796875 106.585938 54.371094 106.992188 54.867188 C 107.417969 55.382812 108.023438 55.886719 108.734375 55.847656 C 109.164062 55.816406 109.164062 55.140625 108.730469 55.164062 Z M 108.730469 55.164062 " fill-opacity="1" fill-rule="nonzero"/><path fill="#259d49" d="M 111.609375 48.152344 C 110.089844 47.539062 109.023438 45.929688 109.046875 44.289062 C 110.117188 44.144531 110.820312 45.3125 111.492188 46.160156 C 112.15625 46.996094 113.039062 47.632812 113.773438 48.40625 C 114.507812 49.179688 115.125 50.175781 115.042969 51.242188 C 115.011719 51.625 114.917969 52.082031 115.203125 52.339844 C 115.425781 52.539062 115.777344 52.507812 116.035156 52.664062 C 116.429688 52.90625 116.4375 53.515625 116.171875 53.898438 C 115.90625 54.277344 115.460938 54.480469 115.035156 54.667969 C 114.113281 55.078125 113.15625 55.492188 112.148438 55.507812 C 111.972656 54.464844 112.027344 53.382812 112.304688 52.363281 C 112.40625 51.988281 112.539062 51.613281 112.574219 51.226562 C 112.660156 50.1875 111.921875 49.140625 110.910156 48.871094 Z M 111.609375 48.152344 " fill-opacity="1" fill-rule="nonzero"/><path fill="#000000" d="M 111.78125 47.859375 C 110.351562 47.253906 109.390625 45.847656 109.386719 44.285156 C 109.273438 44.398438 109.160156 44.511719 109.046875 44.625 C 109.695312 44.5625 110.144531 45.011719 110.535156 45.472656 C 110.941406 45.960938 111.289062 46.484375 111.734375 46.9375 C 112.761719 47.992188 114.1875 48.878906 114.613281 50.375 C 114.71875 50.746094 114.710938 51.09375 114.683594 51.46875 C 114.660156 51.730469 114.648438 51.996094 114.75 52.246094 C 114.851562 52.5 115.050781 52.671875 115.300781 52.773438 C 115.601562 52.886719 115.992188 52.863281 116.015625 53.273438 C 116.0625 53.972656 115.089844 54.277344 114.589844 54.492188 C 113.8125 54.828125 113.011719 55.132812 112.148438 55.164062 C 112.257812 55.246094 112.367188 55.328125 112.476562 55.410156 C 112.347656 54.585938 112.355469 53.730469 112.523438 52.910156 C 112.652344 52.273438 112.945312 51.644531 112.921875 50.980469 C 112.882812 49.851562 112.082031 48.859375 111.007812 48.539062 C 111.054688 48.730469 111.105469 48.917969 111.15625 49.105469 C 111.386719 48.871094 111.621094 48.628906 111.851562 48.390625 C 112.15625 48.078125 111.675781 47.597656 111.375 47.914062 C 111.140625 48.152344 110.910156 48.390625 110.675781 48.628906 C 110.496094 48.8125 110.582031 49.121094 110.828125 49.195312 C 111.347656 49.351562 111.769531 49.703125 112.019531 50.183594 C 112.308594 50.726562 112.261719 51.269531 112.101562 51.847656 C 111.753906 53.09375 111.621094 54.304688 111.820312 55.59375 C 111.84375 55.734375 112.011719 55.847656 112.148438 55.84375 C 112.867188 55.816406 113.546875 55.636719 114.214844 55.375 C 114.808594 55.144531 115.46875 54.910156 115.992188 54.535156 C 116.816406 53.941406 117.023438 52.566406 115.863281 52.226562 C 115.507812 52.125 115.324219 52.074219 115.34375 51.652344 C 115.359375 51.328125 115.402344 51.015625 115.363281 50.683594 C 115.285156 50.050781 115.011719 49.453125 114.644531 48.933594 C 113.863281 47.8125 112.691406 47.066406 111.820312 46.027344 C 111.089844 45.15625 110.371094 43.820312 109.042969 43.945312 C 108.859375 43.960938 108.703125 44.085938 108.703125 44.285156 C 108.707031 46.0625 109.792969 47.746094 111.4375 48.445312 C 111.835938 48.617188 112.183594 48.03125 111.78125 47.859375 Z M 111.78125 47.859375 " fill-opacity="1" fill-rule="nonzero"/><path fill="#259d49" d="M 117.671875 44.855469 C 117.234375 43.675781 116.402344 42.691406 115.773438 41.597656 C 115.144531 40.507812 114.710938 39.171875 115.167969 37.996094 C 115.636719 36.789062 116.992188 35.863281 116.847656 34.578125 C 116.800781 34.167969 116.601562 33.796875 116.414062 33.429688 C 115.207031 31.097656 114.324219 28.601562 113.792969 26.03125 C 114.367188 25.707031 115.078125 25.992188 115.671875 26.273438 C 117.960938 27.371094 120.257812 28.46875 122.546875 29.566406 C 122.738281 29.65625 122.933594 29.753906 123.0625 29.921875 C 123.480469 30.464844 122.875 31.230469 122.25 31.507812 C 121.621094 31.78125 120.839844 31.941406 120.535156 32.558594 C 120.335938 32.964844 120.414062 33.457031 120.554688 33.886719 C 120.902344 34.941406 121.574219 35.855469 122.042969 36.859375 C 122.5 37.847656 122.753906 38.910156 123.007812 39.96875 C 123.574219 42.359375 124.144531 44.753906 124.71875 47.148438 C 123.847656 47.234375 123.121094 46.453125 122.78125 45.648438 C 122.441406 44.839844 122.328125 43.9375 121.882812 43.183594 C 121.429688 42.433594 120.4375 41.875 119.683594 42.3125 C 119.457031 42.445312 119.28125 42.644531 119.140625 42.859375 C 118.726562 43.5 118.578125 44.304688 118.742188 45.046875 C 118.414062 45.058594 118.089844 45.070312 117.761719 45.082031 Z M 117.671875 44.855469 " fill-opacity="1" fill-rule="nonzero"/><path fill="#000000" d="M 118 44.769531 C 117.117188 42.480469 114.148438 40.050781 115.84375 37.453125 C 116.417969 36.574219 117.292969 35.722656 117.1875 34.582031 C 117.125 33.953125 116.769531 33.398438 116.496094 32.851562 C 116.152344 32.160156 115.839844 31.460938 115.554688 30.746094 C 114.9375 29.191406 114.464844 27.582031 114.121094 25.945312 C 114.066406 26.074219 114.015625 26.199219 113.964844 26.328125 C 114.425781 26.105469 114.945312 26.316406 115.371094 26.511719 C 115.867188 26.738281 116.355469 26.980469 116.847656 27.214844 C 117.769531 27.65625 118.691406 28.097656 119.613281 28.539062 C 120.53125 28.980469 121.464844 29.40625 122.378906 29.863281 C 122.808594 30.074219 123.007812 30.339844 122.675781 30.769531 C 122.402344 31.113281 122.007812 31.246094 121.617188 31.394531 C 120.964844 31.648438 120.304688 31.980469 120.121094 32.71875 C 119.933594 33.484375 120.324219 34.316406 120.65625 34.988281 C 121.082031 35.839844 121.617188 36.628906 121.960938 37.519531 C 122.316406 38.445312 122.53125 39.421875 122.761719 40.382812 C 123.304688 42.671875 123.851562 44.953125 124.390625 47.238281 C 124.5 47.09375 124.609375 46.953125 124.71875 46.808594 C 123.585938 46.871094 123.09375 45.621094 122.824219 44.730469 C 122.535156 43.765625 122.253906 42.773438 121.371094 42.183594 C 120.644531 41.699219 119.699219 41.6875 119.097656 42.367188 C 118.425781 43.117188 118.226562 44.171875 118.414062 45.140625 C 118.519531 44.996094 118.632812 44.855469 118.738281 44.710938 C 118.414062 44.722656 118.085938 44.738281 117.761719 44.75 C 117.867188 44.832031 117.980469 44.914062 118.085938 44.996094 C 118.058594 44.917969 118.027344 44.84375 118 44.769531 C 117.839844 44.367188 117.183594 44.542969 117.347656 44.949219 C 117.375 45.023438 117.40625 45.101562 117.4375 45.175781 C 117.492188 45.308594 117.601562 45.429688 117.761719 45.421875 C 118.089844 45.410156 118.414062 45.398438 118.742188 45.386719 C 118.972656 45.378906 119.113281 45.175781 119.066406 44.957031 C 118.917969 44.183594 119.136719 42.734375 120.078125 42.519531 C 120.976562 42.3125 121.632812 43.292969 121.890625 44 C 122.191406 44.824219 122.324219 45.726562 122.847656 46.453125 C 123.289062 47.066406 123.941406 47.527344 124.71875 47.484375 C 124.945312 47.472656 125.097656 47.277344 125.046875 47.054688 C 124.53125 44.882812 124.011719 42.703125 123.492188 40.527344 C 123.246094 39.480469 123.019531 38.421875 122.640625 37.410156 C 122.300781 36.5 121.792969 35.691406 121.34375 34.835938 C 120.941406 34.070312 120.304688 32.84375 121.292969 32.273438 C 121.980469 31.875 122.757812 31.800781 123.253906 31.113281 C 123.707031 30.480469 123.585938 29.742188 122.890625 29.355469 C 121.921875 28.820312 120.878906 28.390625 119.878906 27.910156 C 118.785156 27.386719 117.6875 26.859375 116.589844 26.335938 C 115.675781 25.898438 114.644531 25.242188 113.625 25.734375 C 113.480469 25.800781 113.4375 25.976562 113.46875 26.113281 C 113.765625 27.550781 114.171875 28.964844 114.683594 30.339844 C 114.933594 31.019531 115.210938 31.6875 115.515625 32.347656 C 115.804688 32.984375 116.210938 33.601562 116.429688 34.265625 C 116.828125 35.441406 115.679688 36.386719 115.136719 37.304688 C 114.476562 38.421875 114.554688 39.6875 115.039062 40.859375 C 115.636719 42.316406 116.78125 43.472656 117.347656 44.941406 C 117.5 45.347656 118.15625 45.175781 118 44.769531 Z M 118 44.769531 " fill-opacity="1" fill-rule="nonzero"/><path fill="#259d49" d="M 149.621094 90.320312 C 148.601562 92.347656 148.289062 85.859375 146.386719 84.621094 C 148.5 89.683594 147.835938 95.8125 144.691406 100.308594 C 144.5 94.878906 144.195312 89.105469 141.054688 84.675781 C 140.425781 85.035156 139.6875 85.207031 138.964844 85.15625 C 139.363281 91.300781 140.636719 97.386719 142.738281 103.175781 C 143.167969 103.425781 143.59375 103.675781 144.019531 103.921875 C 138.105469 108.457031 135.804688 116.59375 129.816406 121.03125 C 128.972656 121.660156 128.050781 122.210938 127.367188 123.011719 C 126.296875 124.261719 125.9375 125.949219 125.171875 127.40625 C 122.789062 131.953125 117.132812 133.425781 112.847656 136.253906 C 111.234375 137.3125 109.789062 138.601562 108.34375 139.882812 C 111.910156 134.039062 115.335938 128.109375 118.628906 122.105469 C 119.011719 121.410156 119.390625 120.707031 119.574219 119.933594 C 119.722656 119.300781 119.734375 118.644531 119.757812 117.992188 C 119.898438 114.523438 120.554688 111.074219 121.695312 107.796875 C 121.515625 108.921875 119.738281 109.320312 119.097656 108.382812 C 118.808594 107.960938 118.734375 107.386719 118.328125 107.082031 C 117.417969 106.402344 116.394531 107.742188 115.375 108.246094 C 114.320312 108.769531 113.019531 108.304688 112.109375 107.558594 C 111.199219 106.8125 110.53125 105.8125 109.65625 105.027344 C 107.507812 103.09375 104.269531 102.550781 102.464844 100.292969 C 99.988281 97.1875 101.449219 92.617188 103.226562 89.058594 C 104.910156 85.6875 106.800781 82.417969 108.871094 79.269531 C 109.894531 77.71875 111.0625 76.117188 112.792969 75.441406 C 116.097656 74.152344 120.136719 76.71875 123.253906 75.019531 C 124.378906 74.402344 125.765625 73.277344 126.714844 74.144531 C 125.914062 75.917969 125.339844 78.464844 127.035156 79.414062 C 127.722656 79.796875 128.566406 79.738281 129.335938 79.902344 C 130.804688 80.21875 131.949219 81.34375 133.003906 82.421875 C 132.648438 81.292969 134.121094 80.472656 135.296875 80.375 C 137.882812 80.15625 140.550781 81.023438 142.511719 82.71875 C 142.226562 81.878906 142.695312 80.988281 142.828125 80.113281 C 143.074219 78.503906 142.195312 76.960938 141.398438 75.539062 C 140.597656 74.121094 139.824219 72.488281 140.28125 70.921875 C 140.738281 69.359375 143.105469 68.457031 144.023438 69.804688 C 145.117188 69.753906 145.078125 68.003906 144.304688 67.226562 C 143.535156 66.449219 142.367188 65.914062 142.128906 64.847656 C 142.019531 64.34375 142.148438 63.820312 142.078125 63.308594 C 141.933594 62.261719 140.839844 61.441406 139.792969 61.601562 C 138.746094 61.761719 137.949219 62.875 138.128906 63.917969 C 138.222656 64.476562 138.554688 64.972656 138.699219 65.523438 C 139.480469 68.480469 134.945312 70.464844 134.871094 73.527344 C 134.359375 69.0625 131.507812 64.933594 127.511719 62.882812 C 127.136719 62.6875 126.609375 62.539062 126.34375 62.871094 C 126.101562 63.171875 126.292969 63.613281 126.503906 63.933594 C 127.109375 64.851562 127.863281 65.675781 128.726562 66.359375 C 129.820312 67.230469 131.117188 67.90625 131.929688 69.042969 C 132.742188 70.183594 132.820312 72.039062 131.625 72.769531 C 130.359375 69.945312 128.332031 67.464844 125.816406 65.664062 C 124.453125 64.683594 122.554688 63.914062 121.167969 64.855469 C 120.191406 65.523438 119.84375 66.816406 118.945312 67.59375 C 118.566406 67.925781 118.09375 68.152344 117.753906 68.527344 C 117.355469 68.96875 117.1875 69.558594 116.949219 70.097656 C 116.117188 72.027344 114.15625 73.546875 112.054688 73.445312 C 109.957031 73.34375 108.03125 71.292969 108.425781 69.226562 C 108.992188 66.269531 113.019531 65.558594 114.800781 63.128906 C 113.488281 62.949219 112.476562 61.554688 112.71875 60.25 C 114.535156 59.789062 116.242188 58.898438 117.664062 57.675781 C 117.90625 57.46875 118.144531 57.238281 118.265625 56.941406 C 118.445312 56.5 118.324219 56.003906 118.285156 55.527344 C 118.125 53.644531 119.523438 51.753906 121.371094 51.347656 C 120.324219 50.242188 119.882812 48.597656 120.234375 47.113281 C 120.796875 46.71875 121.574219 47.339844 121.742188 48.003906 C 121.90625 48.671875 121.75 49.390625 121.949219 50.050781 C 122.277344 51.148438 123.523438 51.761719 124.671875 51.734375 C 125.816406 51.710938 126.890625 51.191406 127.917969 50.683594 C 128.410156 50.445312 128.925781 50.179688 129.214844 49.714844 C 129.519531 49.226562 129.511719 48.613281 129.5 48.035156 C 129.449219 46.1875 129.398438 44.335938 129.347656 42.492188 C 126.429688 42.121094 124.089844 39.183594 124.378906 36.253906 C 124.425781 35.800781 124.578125 35.289062 124.992188 35.109375 C 125.320312 34.972656 125.691406 35.089844 126.023438 35.207031 C 127.113281 35.589844 128.203125 35.972656 129.292969 36.355469 C 129.160156 35.425781 129.035156 34.496094 128.90625 33.566406 C 128.90625 33.566406 132.058594 34.792969 140.078125 45.660156 C 140.078125 45.660156 145.511719 54.046875 147.335938 59.710938 C 147.335938 59.710938 150.453125 69.488281 150.550781 73.730469 C 150.554688 73.730469 151.410156 86.757812 149.621094 90.320312 Z M 149.621094 90.320312 " fill-opacity="1" fill-rule="nonzero"/><path fill="#000000" d="M 149.332031 90.148438 C 149.3125 90.1875 149.167969 90.367188 149.171875 90.394531 C 149.167969 90.355469 149.316406 90.40625 149.316406 90.386719 C 149.308594 90.320312 149.140625 90.074219 149.09375 89.960938 C 148.84375 89.335938 148.6875 88.667969 148.492188 88.019531 C 148.121094 86.765625 147.707031 85.117188 146.558594 84.328125 C 146.332031 84.171875 145.949219 84.441406 146.0625 84.710938 C 148.128906 89.746094 147.496094 95.660156 144.40625 100.140625 C 144.613281 100.199219 144.824219 100.253906 145.035156 100.3125 C 144.839844 94.90625 144.558594 89.09375 141.351562 84.507812 C 141.242188 84.351562 141.058594 84.292969 140.886719 84.386719 C 140.28125 84.710938 139.652344 84.851562 138.96875 84.820312 C 138.792969 84.8125 138.617188 84.980469 138.628906 85.160156 C 138.855469 88.5625 139.335938 91.949219 140.078125 95.273438 C 140.453125 96.941406 140.890625 98.589844 141.390625 100.222656 C 141.648438 101.054688 141.917969 101.878906 142.210938 102.703125 C 142.308594 102.972656 142.359375 103.269531 142.570312 103.46875 C 142.886719 103.777344 143.46875 103.996094 143.851562 104.214844 C 143.828125 104.039062 143.804688 103.863281 143.78125 103.683594 C 138.492188 107.773438 136.230469 114.40625 131.570312 119.0625 C 130.964844 119.660156 130.328125 120.226562 129.644531 120.734375 C 128.941406 121.261719 128.191406 121.726562 127.550781 122.332031 C 126.222656 123.578125 125.800781 125.335938 125.035156 126.925781 C 123.625 129.855469 120.792969 131.558594 118.019531 133.015625 C 116.441406 133.84375 114.832031 134.617188 113.308594 135.554688 C 111.421875 136.710938 109.753906 138.171875 108.105469 139.640625 C 108.28125 139.777344 108.457031 139.914062 108.632812 140.050781 C 111.082031 136.035156 113.46875 131.984375 115.789062 127.890625 C 116.933594 125.867188 118.097656 123.847656 119.179688 121.789062 C 119.671875 120.855469 119.984375 119.925781 120.054688 118.867188 C 120.132812 117.738281 120.160156 116.613281 120.285156 115.492188 C 120.578125 112.898438 121.171875 110.347656 122.023438 107.882812 C 121.804688 107.820312 121.585938 107.761719 121.371094 107.703125 C 121.207031 108.476562 120.074219 108.875 119.480469 108.304688 C 119.152344 107.996094 119.089844 107.480469 118.832031 107.117188 C 118.605469 106.804688 118.253906 106.578125 117.867188 106.554688 C 116.933594 106.492188 116.195312 107.363281 115.460938 107.804688 C 114.433594 108.425781 113.226562 108.015625 112.351562 107.3125 C 111.433594 106.578125 110.773438 105.566406 109.898438 104.78125 C 109.183594 104.140625 108.351562 103.640625 107.503906 103.195312 C 105.71875 102.253906 103.652344 101.476562 102.480469 99.734375 C 101.269531 97.933594 101.332031 95.671875 101.828125 93.644531 C 102.382812 91.378906 103.453125 89.300781 104.539062 87.25 C 105.769531 84.933594 107.09375 82.664062 108.507812 80.453125 C 109.683594 78.621094 110.972656 76.367188 113.179688 75.660156 C 115.445312 74.933594 117.859375 75.84375 120.15625 75.945312 C 121.230469 75.996094 122.316406 75.867188 123.289062 75.378906 C 124.097656 74.976562 125.5625 73.632812 126.476562 74.382812 C 126.460938 74.246094 126.441406 74.109375 126.425781 73.972656 C 125.738281 75.507812 124.9375 77.988281 126.390625 79.355469 C 127.277344 80.1875 128.488281 79.984375 129.570312 80.3125 C 130.863281 80.703125 131.847656 81.722656 132.769531 82.65625 C 133.007812 82.902344 133.417969 82.652344 133.335938 82.328125 C 133.121094 81.507812 134.066406 81.015625 134.722656 80.828125 C 135.507812 80.601562 136.402344 80.648438 137.203125 80.742188 C 139.066406 80.960938 140.847656 81.746094 142.277344 82.957031 C 142.523438 83.167969 142.941406 82.972656 142.84375 82.628906 C 142.582031 81.695312 143.128906 80.757812 143.203125 79.832031 C 143.269531 78.949219 143.023438 78.078125 142.679688 77.273438 C 141.929688 75.515625 140.449219 73.839844 140.492188 71.832031 C 140.511719 71.042969 140.804688 70.363281 141.464844 69.910156 C 141.957031 69.574219 142.640625 69.351562 143.222656 69.578125 C 143.503906 69.683594 143.59375 69.921875 143.828125 70.070312 C 144.035156 70.207031 144.332031 70.125 144.539062 70.011719 C 144.992188 69.777344 145.183594 69.273438 145.210938 68.789062 C 145.289062 67.347656 144.15625 66.703125 143.214844 65.859375 C 142.9375 65.609375 142.675781 65.332031 142.535156 64.980469 C 142.34375 64.476562 142.480469 63.925781 142.433594 63.402344 C 142.375 62.730469 142.023438 62.136719 141.488281 61.734375 C 140.339844 60.875 138.742188 61.234375 138.066406 62.5 C 137.726562 63.132812 137.703125 63.828125 137.949219 64.496094 C 138.207031 65.191406 138.554688 65.804688 138.433594 66.570312 C 138.230469 67.90625 137.089844 68.976562 136.269531 69.96875 C 135.417969 71.003906 134.601562 72.136719 134.539062 73.523438 C 134.765625 73.523438 134.988281 73.523438 135.214844 73.523438 C 134.765625 69.800781 132.832031 66.332031 129.886719 64.007812 C 129.171875 63.445312 128.394531 62.894531 127.558594 62.523438 C 126.949219 62.25 125.984375 62.242188 125.90625 63.113281 C 125.828125 63.972656 126.757812 64.890625 127.289062 65.46875 C 127.988281 66.234375 128.808594 66.847656 129.652344 67.445312 C 130.546875 68.074219 131.566406 68.777344 131.988281 69.832031 C 132.335938 70.710938 132.324219 71.902344 131.460938 72.472656 C 131.617188 72.515625 131.769531 72.554688 131.925781 72.59375 C 130.664062 69.820312 128.714844 67.394531 126.273438 65.570312 C 125.148438 64.730469 123.71875 63.933594 122.261719 64.109375 C 120.804688 64.285156 120.152344 65.425781 119.40625 66.535156 C 118.953125 67.203125 118.363281 67.542969 117.765625 68.050781 C 117.226562 68.511719 116.988281 69.140625 116.726562 69.777344 C 116.164062 71.136719 115.089844 72.320312 113.691406 72.839844 C 112.285156 73.359375 110.769531 73.066406 109.710938 71.988281 C 108.710938 70.976562 108.417969 69.511719 109.160156 68.265625 C 109.816406 67.15625 111.011719 66.46875 112.066406 65.796875 C 113.1875 65.089844 114.300781 64.359375 115.109375 63.289062 C 115.230469 63.121094 115.105469 62.824219 114.90625 62.792969 C 113.765625 62.597656 112.882812 61.503906 113.058594 60.328125 C 112.980469 60.410156 112.902344 60.484375 112.820312 60.566406 C 114.019531 60.25 115.175781 59.777344 116.234375 59.128906 C 116.722656 58.832031 117.191406 58.496094 117.636719 58.136719 C 118.042969 57.808594 118.46875 57.453125 118.632812 56.941406 C 118.800781 56.398438 118.632812 55.84375 118.625 55.296875 C 118.613281 54.734375 118.746094 54.183594 118.992188 53.679688 C 119.484375 52.671875 120.382812 51.925781 121.472656 51.664062 C 121.734375 51.601562 121.789062 51.28125 121.621094 51.097656 C 121.070312 50.496094 120.695312 49.757812 120.542969 48.957031 C 120.472656 48.585938 120.453125 48.207031 120.476562 47.832031 C 120.484375 47.726562 120.46875 47.382812 120.570312 47.328125 C 120.730469 47.238281 121.023438 47.476562 121.125 47.570312 C 121.742188 48.179688 121.414062 49.269531 121.609375 50.042969 C 121.761719 50.644531 122.15625 51.136719 122.664062 51.484375 C 123.914062 52.339844 125.476562 52.113281 126.796875 51.570312 C 128.136719 51.023438 129.679688 50.441406 129.835938 48.8125 C 129.929688 47.816406 129.8125 46.773438 129.785156 45.769531 C 129.757812 44.675781 129.726562 43.578125 129.695312 42.480469 C 129.691406 42.351562 129.59375 42.175781 129.445312 42.15625 C 127.378906 41.859375 125.625 40.328125 124.972656 38.351562 C 124.757812 37.699219 124.304688 35.761719 125.183594 35.433594 C 125.515625 35.308594 125.910156 35.515625 126.230469 35.628906 C 126.554688 35.742188 126.875 35.851562 127.195312 35.964844 C 127.867188 36.199219 128.539062 36.4375 129.210938 36.671875 C 129.484375 36.769531 129.660156 36.488281 129.628906 36.253906 C 129.5 35.328125 129.371094 34.394531 129.242188 33.464844 C 129.105469 33.605469 128.960938 33.746094 128.824219 33.882812 C 128.65625 33.816406 128.972656 33.96875 129.035156 34.003906 C 129.328125 34.175781 129.605469 34.375 129.875 34.582031 C 131.234375 35.628906 132.441406 36.890625 133.597656 38.152344 C 134.613281 39.261719 135.582031 40.410156 136.523438 41.578125 C 137.648438 42.964844 138.800781 44.367188 139.808594 45.84375 C 140.8125 47.3125 141.691406 48.882812 142.570312 50.429688 C 144.109375 53.125 145.59375 55.894531 146.671875 58.804688 C 147.214844 60.269531 147.632812 61.785156 148.058594 63.285156 C 148.796875 65.890625 149.492188 68.527344 149.945312 71.203125 C 150.171875 72.5625 150.242188 73.929688 150.304688 75.304688 C 150.40625 77.539062 150.453125 79.773438 150.414062 82.007812 C 150.371094 84.332031 150.320312 86.761719 149.730469 89.023438 C 149.621094 89.414062 149.507812 89.792969 149.332031 90.148438 C 149.140625 90.539062 149.726562 90.878906 149.917969 90.492188 C 150.832031 88.628906 150.902344 86.289062 151.011719 84.257812 C 151.144531 81.757812 151.117188 79.253906 151.035156 76.753906 C 150.992188 75.5 150.957031 74.234375 150.851562 72.980469 C 150.621094 70.296875 149.925781 67.640625 149.234375 65.039062 C 148.757812 63.246094 148.25 61.460938 147.6875 59.691406 C 146.835938 57.015625 145.546875 54.472656 144.214844 52.007812 C 143.089844 49.921875 141.886719 47.878906 140.621094 45.878906 C 140.023438 44.9375 139.3125 44.0625 138.628906 43.179688 C 137.570312 41.800781 136.484375 40.449219 135.351562 39.128906 C 133.972656 37.523438 132.527344 35.941406 130.910156 34.570312 C 130.378906 34.121094 129.789062 33.578125 129.140625 33.300781 C 129.09375 33.28125 129.046875 33.257812 129 33.238281 C 128.726562 33.136719 128.550781 33.433594 128.582031 33.65625 C 128.710938 34.585938 128.839844 35.515625 128.96875 36.445312 C 129.105469 36.308594 129.246094 36.167969 129.386719 36.027344 C 128.554688 35.734375 127.71875 35.441406 126.886719 35.152344 C 126.277344 34.9375 125.476562 34.507812 124.828125 34.820312 C 123.773438 35.328125 123.953125 37.039062 124.15625 37.96875 C 124.691406 40.40625 126.769531 42.464844 129.261719 42.820312 C 129.179688 42.710938 129.09375 42.601562 129.011719 42.492188 C 129.066406 44.429688 129.15625 46.367188 129.171875 48.300781 C 129.171875 48.769531 129.152344 49.253906 128.855469 49.640625 C 128.597656 49.976562 128.199219 50.171875 127.828125 50.359375 C 126.980469 50.78125 126.097656 51.222656 125.152344 51.359375 C 124.386719 51.472656 123.570312 51.339844 122.941406 50.871094 C 122.15625 50.28125 122.222656 49.449219 122.164062 48.5625 C 122.121094 47.890625 121.910156 47.25 121.316406 46.871094 C 120.933594 46.632812 120.199219 46.5 119.933594 46.984375 C 119.765625 47.28125 119.785156 47.832031 119.785156 48.164062 C 119.789062 48.574219 119.84375 48.984375 119.941406 49.382812 C 120.148438 50.210938 120.570312 50.960938 121.140625 51.585938 C 121.191406 51.398438 121.242188 51.207031 121.289062 51.019531 C 119.378906 51.480469 117.90625 53.320312 117.941406 55.304688 C 117.957031 55.949219 118.210938 56.621094 117.726562 57.160156 C 117.300781 57.632812 116.730469 58.011719 116.195312 58.359375 C 115.101562 59.074219 113.902344 59.589844 112.640625 59.921875 C 112.539062 59.949219 112.417969 60.046875 112.402344 60.160156 C 112.175781 61.671875 113.183594 63.195312 114.71875 63.453125 C 114.652344 63.289062 114.585938 63.121094 114.519531 62.957031 C 113.039062 64.917969 110.398438 65.539062 108.890625 67.46875 C 108.179688 68.386719 107.859375 69.558594 108.171875 70.695312 C 108.523438 71.964844 109.539062 72.996094 110.742188 73.488281 C 113.433594 74.589844 116.289062 72.566406 117.320312 70.113281 C 117.460938 69.765625 117.585938 69.40625 117.773438 69.085938 C 118.007812 68.691406 118.355469 68.453125 118.722656 68.195312 C 119.304688 67.78125 119.730469 67.285156 120.117188 66.683594 C 120.53125 66.050781 120.917969 65.339844 121.621094 64.988281 C 122.359375 64.625 123.226562 64.765625 123.972656 65.035156 C 125.667969 65.65625 127.144531 67.042969 128.339844 68.359375 C 129.578125 69.71875 130.578125 71.269531 131.339844 72.941406 C 131.410156 73.101562 131.664062 73.15625 131.804688 73.0625 C 133 72.265625 133.101562 70.679688 132.554688 69.453125 C 131.820312 67.792969 130.003906 67.003906 128.6875 65.886719 C 127.945312 65.253906 127.128906 64.453125 126.691406 63.566406 C 126.539062 63.265625 126.675781 63 127.015625 63.042969 C 127.226562 63.070312 127.445312 63.21875 127.628906 63.320312 C 128.046875 63.546875 128.449219 63.796875 128.839844 64.066406 C 130.304688 65.089844 131.5625 66.421875 132.519531 67.929688 C 133.59375 69.617188 134.300781 71.535156 134.539062 73.523438 C 134.585938 73.945312 135.195312 73.972656 135.214844 73.523438 C 135.339844 70.710938 138.730469 69.351562 139.105469 66.613281 C 139.214844 65.828125 138.953125 65.183594 138.664062 64.472656 C 138.300781 63.570312 138.476562 62.527344 139.429688 62.066406 C 140.328125 61.632812 141.46875 62.238281 141.714844 63.183594 C 141.84375 63.675781 141.710938 64.199219 141.777344 64.699219 C 141.824219 65.101562 141.984375 65.464844 142.226562 65.789062 C 142.769531 66.511719 143.65625 66.886719 144.191406 67.601562 C 144.503906 68.015625 144.871094 69.378906 144.035156 69.464844 C 144.132812 69.519531 144.230469 69.574219 144.328125 69.632812 C 143.628906 68.683594 142.433594 68.632812 141.4375 69.140625 C 140.183594 69.773438 139.6875 71.070312 139.851562 72.421875 C 140.078125 74.269531 141.261719 75.75 142.003906 77.402344 C 142.429688 78.347656 142.667969 79.34375 142.4375 80.371094 C 142.261719 81.191406 141.957031 81.964844 142.195312 82.808594 C 142.382812 82.695312 142.570312 82.585938 142.761719 82.476562 C 141.011719 80.992188 138.8125 80.109375 136.515625 80.011719 C 135.550781 79.96875 134.546875 80.035156 133.695312 80.53125 C 132.972656 80.953125 132.464844 81.652344 132.6875 82.507812 C 132.875 82.398438 133.066406 82.289062 133.253906 82.179688 C 132.492188 81.40625 131.703125 80.613281 130.746094 80.082031 C 130.285156 79.828125 129.789062 79.636719 129.269531 79.542969 C 128.71875 79.445312 128.136719 79.449219 127.597656 79.277344 C 125.492188 78.613281 126.382812 75.742188 127.019531 74.3125 C 127.078125 74.1875 127.089844 74.003906 126.96875 73.902344 C 126.136719 73.222656 125.1875 73.539062 124.332031 74.003906 C 123.304688 74.5625 122.4375 75.148438 121.242188 75.253906 C 118.964844 75.453125 116.738281 74.574219 114.460938 74.742188 C 112.09375 74.917969 110.46875 76.414062 109.152344 78.273438 C 107.527344 80.570312 106.089844 83.027344 104.730469 85.488281 C 103.492188 87.738281 102.222656 90.039062 101.457031 92.5 C 100.804688 94.59375 100.484375 96.964844 101.355469 99.042969 C 102.21875 101.101562 104.078125 102.21875 105.988281 103.175781 C 106.984375 103.675781 108 104.160156 108.902344 104.828125 C 109.921875 105.582031 110.636719 106.644531 111.554688 107.503906 C 112.425781 108.316406 113.613281 108.964844 114.84375 108.765625 C 115.4375 108.667969 115.914062 108.347656 116.390625 107.996094 C 116.78125 107.710938 117.449219 107.074219 117.984375 107.265625 C 118.53125 107.464844 118.601562 108.351562 118.980469 108.746094 C 119.269531 109.050781 119.671875 109.210938 120.089844 109.234375 C 120.957031 109.289062 121.851562 108.769531 122.039062 107.882812 C 122.128906 107.457031 121.527344 107.292969 121.386719 107.703125 C 120.644531 109.851562 120.105469 112.0625 119.777344 114.3125 C 119.625 115.367188 119.519531 116.425781 119.460938 117.492188 C 119.398438 118.664062 119.398438 119.785156 118.898438 120.875 C 117.960938 122.921875 116.734375 124.875 115.628906 126.828125 C 114.472656 128.878906 113.300781 130.914062 112.113281 132.945312 C 110.785156 135.210938 109.4375 137.472656 108.066406 139.710938 C 107.859375 140.050781 108.320312 140.371094 108.597656 140.125 C 110.113281 138.777344 111.632812 137.429688 113.347656 136.339844 C 114.703125 135.480469 116.136719 134.761719 117.558594 134.027344 C 120.257812 132.632812 123.085938 131.132812 124.871094 128.582031 C 125.871094 127.148438 126.242188 125.421875 127.136719 123.9375 C 128.078125 122.378906 129.824219 121.566406 131.160156 120.394531 C 133.617188 118.234375 135.433594 115.46875 137.210938 112.75 C 139.246094 109.640625 141.300781 106.464844 144.273438 104.164062 C 144.453125 104.027344 144.375 103.730469 144.207031 103.628906 C 143.886719 103.445312 143.359375 103.253906 143.105469 102.992188 C 142.871094 102.746094 142.789062 102.273438 142.675781 101.953125 C 142.417969 101.191406 142.171875 100.425781 141.9375 99.660156 C 141.464844 98.089844 141.054688 96.5 140.699219 94.898438 C 139.992188 91.691406 139.535156 88.4375 139.316406 85.160156 C 139.203125 85.273438 139.089844 85.386719 138.976562 85.5 C 139.777344 85.53125 140.53125 85.351562 141.238281 84.972656 C 141.082031 84.929688 140.925781 84.890625 140.773438 84.851562 C 143.914062 89.339844 144.175781 95.019531 144.367188 100.3125 C 144.378906 100.660156 144.808594 100.753906 144.996094 100.480469 C 148.179688 95.875 148.851562 89.714844 146.722656 84.535156 C 146.558594 84.660156 146.390625 84.789062 146.226562 84.914062 C 146.84375 85.339844 147.15625 86.175781 147.402344 86.84375 C 147.703125 87.664062 147.929688 88.503906 148.179688 89.339844 C 148.328125 89.820312 148.464844 90.511719 148.851562 90.875 C 149.277344 91.273438 149.707031 90.90625 149.925781 90.496094 C 150.117188 90.105469 149.535156 89.761719 149.332031 90.148438 Z M 149.332031 90.148438 " fill-opacity="1" fill-rule="nonzero"/><path fill="#259d49" d="M 124.339844 69.132812 C 124.1875 69.90625 124.09375 70.691406 124.058594 71.476562 C 124.058594 71.542969 124.054688 71.617188 124.089844 71.679688 C 124.117188 71.730469 124.167969 71.765625 124.214844 71.796875 C 124.457031 71.957031 124.710938 72.109375 124.964844 72.246094 C 125.085938 72.308594 125.234375 72.367188 125.34375 72.289062 C 125.378906 72.265625 125.402344 72.230469 125.429688 72.195312 C 125.683594 71.820312 125.9375 71.445312 126.191406 71.070312 C 126.261719 70.964844 126.335938 70.859375 126.34375 70.730469 C 126.378906 70.363281 125.886719 70.144531 125.816406 69.777344 C 125.792969 69.664062 125.816406 69.535156 125.769531 69.425781 C 125.71875 69.285156 125.570312 69.199219 125.429688 69.167969 C 125.285156 69.132812 125.132812 69.136719 124.984375 69.117188 C 124.824219 69.09375 124.609375 69.074219 124.550781 69.226562 Z M 124.339844 69.132812 " fill-opacity="1" fill-rule="nonzero"/><path fill="#000000" d="M 124.015625 69.042969 C 123.863281 69.8125 123.765625 70.597656 123.726562 71.382812 C 123.71875 71.574219 123.71875 71.761719 123.847656 71.917969 C 123.960938 72.058594 124.136719 72.148438 124.285156 72.246094 C 124.578125 72.429688 124.976562 72.734375 125.34375 72.648438 C 125.535156 72.605469 125.644531 72.46875 125.75 72.308594 C 125.867188 72.140625 125.980469 71.96875 126.097656 71.796875 C 126.195312 71.65625 126.292969 71.507812 126.390625 71.363281 C 126.496094 71.210938 126.609375 71.054688 126.65625 70.871094 C 126.742188 70.550781 126.578125 70.273438 126.378906 70.039062 C 126.304688 69.949219 126.238281 69.886719 126.1875 69.804688 C 126.152344 69.746094 126.148438 69.757812 126.140625 69.699219 C 126.128906 69.609375 126.132812 69.519531 126.117188 69.425781 C 126.035156 68.992188 125.625 68.832031 125.230469 68.792969 C 124.894531 68.765625 124.445312 68.671875 124.257812 69.046875 C 124.382812 68.992188 124.511719 68.941406 124.636719 68.890625 C 124.566406 68.863281 124.5 68.832031 124.425781 68.804688 C 124.261719 68.734375 124.058594 68.882812 124.015625 69.042969 C 123.964844 69.238281 124.082031 69.386719 124.253906 69.460938 C 124.324219 69.488281 124.390625 69.519531 124.464844 69.546875 C 124.59375 69.597656 124.785156 69.511719 124.84375 69.390625 C 124.839844 69.402344 124.738281 69.476562 124.765625 69.441406 C 124.757812 69.453125 124.730469 69.417969 124.769531 69.4375 C 124.796875 69.453125 124.878906 69.441406 124.910156 69.445312 C 125.027344 69.453125 125.144531 69.464844 125.265625 69.476562 C 125.316406 69.484375 125.4375 69.492188 125.464844 69.550781 C 125.464844 69.550781 125.464844 69.597656 125.464844 69.59375 C 125.476562 69.671875 125.472656 69.757812 125.484375 69.835938 C 125.523438 70.050781 125.65625 70.222656 125.789062 70.382812 C 125.835938 70.4375 125.910156 70.519531 125.933594 70.550781 C 125.957031 70.585938 125.984375 70.621094 126 70.660156 C 125.984375 70.621094 125.996094 70.738281 126.003906 70.691406 C 125.996094 70.769531 125.925781 70.851562 125.878906 70.917969 C 125.792969 71.046875 125.703125 71.175781 125.617188 71.304688 C 125.578125 71.363281 125.125 72.007812 125.136719 72.019531 C 125.152344 72.035156 125.199219 71.996094 125.191406 71.976562 C 125.179688 71.957031 125.058594 71.910156 125.03125 71.898438 C 124.90625 71.828125 124.777344 71.753906 124.652344 71.675781 C 124.597656 71.640625 124.539062 71.605469 124.484375 71.566406 C 124.472656 71.558594 124.359375 71.476562 124.390625 71.523438 C 124.414062 71.554688 124.398438 71.472656 124.402344 71.445312 C 124.40625 71.363281 124.410156 71.277344 124.417969 71.195312 C 124.457031 70.53125 124.542969 69.875 124.671875 69.226562 C 124.710938 69.046875 124.621094 68.859375 124.4375 68.808594 C 124.265625 68.761719 124.050781 68.863281 124.015625 69.042969 Z M 124.015625 69.042969 " fill-opacity="1" fill-rule="nonzero"/><path fill="#259d49" d="M 123.78125 67.121094 C 123.746094 67.246094 123.710938 67.371094 123.679688 67.5 C 123.667969 67.542969 123.652344 67.585938 123.664062 67.628906 C 123.679688 67.714844 123.769531 67.765625 123.851562 67.789062 C 123.933594 67.808594 124.027344 67.808594 124.105469 67.84375 C 124.234375 67.902344 124.308594 68.054688 124.273438 68.195312 C 124.433594 68.230469 124.59375 68.246094 124.757812 68.25 C 124.898438 68.253906 125.050781 68.238281 125.164062 68.15625 C 125.375 68.007812 125.394531 67.707031 125.394531 67.449219 C 125.390625 67.234375 125.390625 67.007812 125.28125 66.824219 C 125.160156 66.621094 124.925781 66.496094 124.6875 66.484375 C 124.449219 66.46875 124.214844 66.546875 124.007812 66.667969 Z M 123.78125 67.121094 " fill-opacity="1" fill-rule="nonzero"/><path fill="#000000" d="M 123.453125 67.027344 C 123.414062 67.175781 123.359375 67.324219 123.335938 67.472656 C 123.296875 67.699219 123.375 67.90625 123.570312 68.03125 C 123.6875 68.109375 123.824219 68.121094 123.960938 68.148438 C 124 68.164062 123.996094 68.160156 123.953125 68.144531 C 123.980469 68.160156 123.980469 68.160156 123.957031 68.144531 C 123.933594 68.128906 123.933594 68.128906 123.957031 68.148438 C 123.929688 68.113281 123.925781 68.109375 123.945312 68.140625 C 123.980469 68.203125 123.933594 68.074219 123.945312 68.144531 C 123.941406 68.09375 123.941406 68.085938 123.945312 68.125 C 123.941406 68.164062 123.945312 68.15625 123.949219 68.105469 C 123.917969 68.277344 123.996094 68.480469 124.1875 68.523438 C 124.597656 68.613281 125.160156 68.679688 125.476562 68.335938 C 125.742188 68.046875 125.753906 67.617188 125.730469 67.246094 C 125.714844 67.03125 125.675781 66.804688 125.550781 66.625 C 125.417969 66.429688 125.238281 66.296875 125.023438 66.214844 C 124.816406 66.136719 124.59375 66.136719 124.378906 66.171875 C 124.285156 66.1875 124.191406 66.214844 124.097656 66.253906 C 123.964844 66.308594 123.792969 66.371094 123.714844 66.5 C 123.625 66.640625 123.566406 66.804688 123.492188 66.953125 C 123.414062 67.109375 123.445312 67.328125 123.613281 67.417969 C 123.765625 67.5 123.992188 67.464844 124.078125 67.296875 C 124.152344 67.144531 124.226562 66.996094 124.300781 66.84375 C 124.257812 66.882812 124.21875 66.921875 124.179688 66.964844 C 124.214844 66.945312 124.253906 66.925781 124.289062 66.90625 C 124.324219 66.890625 124.328125 66.890625 124.292969 66.902344 C 124.3125 66.894531 124.332031 66.890625 124.351562 66.882812 C 124.421875 66.855469 124.492188 66.835938 124.5625 66.828125 C 124.484375 66.839844 124.613281 66.828125 124.625 66.828125 C 124.644531 66.828125 124.667969 66.828125 124.6875 66.832031 C 124.726562 66.835938 124.722656 66.835938 124.675781 66.828125 C 124.699219 66.828125 124.730469 66.839844 124.753906 66.847656 C 124.769531 66.851562 124.878906 66.894531 124.796875 66.855469 C 124.832031 66.871094 124.859375 66.886719 124.890625 66.90625 C 124.910156 66.921875 124.957031 66.96875 124.910156 66.914062 C 124.933594 66.941406 124.957031 66.960938 124.984375 66.988281 C 124.925781 66.929688 124.992188 67.015625 125.003906 67.03125 C 125.042969 67.089844 125 66.992188 125.015625 67.054688 C 125.023438 67.089844 125.035156 67.128906 125.042969 67.167969 C 125.050781 67.207031 125.050781 67.207031 125.042969 67.167969 C 125.046875 67.1875 125.050781 67.207031 125.050781 67.222656 C 125.050781 67.257812 125.054688 67.292969 125.054688 67.328125 C 125.058594 67.453125 125.058594 67.582031 125.046875 67.707031 C 125.039062 67.746094 125.042969 67.742188 125.050781 67.691406 C 125.046875 67.707031 125.042969 67.726562 125.039062 67.738281 C 125.035156 67.769531 125.023438 67.800781 125.015625 67.832031 C 125 67.894531 125.050781 67.78125 125.011719 67.839844 C 125.003906 67.851562 125 67.867188 124.988281 67.875 C 124.964844 67.90625 124.972656 67.902344 125 67.863281 C 124.988281 67.875 124.976562 67.886719 124.964844 67.894531 C 125.003906 67.867188 125.007812 67.867188 124.972656 67.886719 C 124.917969 67.929688 125.023438 67.878906 124.953125 67.898438 C 124.9375 67.90625 124.820312 67.921875 124.902344 67.914062 C 124.863281 67.917969 124.824219 67.921875 124.785156 67.921875 C 124.710938 67.921875 124.636719 67.917969 124.566406 67.910156 C 124.542969 67.90625 124.523438 67.90625 124.503906 67.902344 C 124.539062 67.90625 124.539062 67.90625 124.496094 67.898438 C 124.453125 67.890625 124.410156 67.882812 124.371094 67.875 C 124.449219 68.011719 124.527344 68.152344 124.605469 68.292969 C 124.675781 67.9375 124.484375 67.582031 124.117188 67.5 C 124.058594 67.484375 123.992188 67.46875 123.933594 67.464844 C 123.910156 67.457031 123.917969 67.460938 123.960938 67.480469 C 123.945312 67.472656 123.933594 67.464844 123.917969 67.453125 C 123.9375 67.460938 123.953125 67.476562 123.964844 67.492188 C 123.992188 67.523438 124.003906 67.558594 124.003906 67.601562 C 124 67.640625 124 67.632812 124.011719 67.59375 C 124.015625 67.578125 124.019531 67.5625 124.023438 67.546875 C 124.035156 67.511719 124.042969 67.472656 124.054688 67.4375 C 124.074219 67.363281 124.09375 67.289062 124.113281 67.214844 C 124.160156 67.042969 124.058594 66.839844 123.878906 66.796875 C 123.691406 66.75 123.503906 66.847656 123.453125 67.027344 Z M 123.453125 67.027344 " fill-opacity="1" fill-rule="nonzero"/><path fill="#259d49" d="M 128.105469 72.507812 C 128.007812 72.867188 127.933594 73.230469 127.875 73.597656 C 128.183594 73.613281 128.445312 73.816406 128.671875 74.027344 C 129.066406 74.386719 129.417969 74.796875 129.71875 75.242188 C 129.824219 75.398438 129.921875 75.558594 129.972656 75.738281 C 130.210938 74.816406 130.300781 73.855469 130.238281 72.90625 C 129.671875 72.652344 129.085938 72.449219 128.484375 72.308594 Z M 128.105469 72.507812 " fill-opacity="1" fill-rule="nonzero"/><path fill="#000000" d="M 127.78125 72.421875 C 127.683594 72.78125 127.609375 73.140625 127.550781 73.507812 C 127.515625 73.738281 127.640625 73.914062 127.875 73.9375 C 128.054688 73.953125 128.21875 74.078125 128.351562 74.191406 C 128.535156 74.351562 128.707031 74.523438 128.867188 74.703125 C 129.027344 74.878906 129.179688 75.066406 129.320312 75.257812 C 129.445312 75.4375 129.582031 75.617188 129.648438 75.824219 C 129.746094 76.136719 130.214844 76.160156 130.300781 75.824219 C 130.542969 74.871094 130.636719 73.886719 130.574219 72.902344 C 130.566406 72.792969 130.515625 72.660156 130.40625 72.609375 C 129.890625 72.382812 129.363281 72.1875 128.820312 72.042969 C 128.6875 72.007812 128.53125 71.941406 128.394531 71.976562 C 128.335938 71.996094 128.277344 72.03125 128.222656 72.0625 C 128.125 72.109375 128.027344 72.164062 127.933594 72.214844 C 127.550781 72.417969 127.890625 73.003906 128.277344 72.800781 C 128.40625 72.734375 128.527344 72.667969 128.65625 72.597656 C 128.570312 72.609375 128.480469 72.621094 128.394531 72.628906 C 128.96875 72.769531 129.53125 72.953125 130.066406 73.195312 C 130.011719 73.097656 129.953125 73 129.898438 72.902344 C 129.953125 73.824219 129.875 74.746094 129.644531 75.640625 C 129.863281 75.640625 130.082031 75.640625 130.296875 75.640625 C 130.121094 75.085938 129.691406 74.59375 129.304688 74.171875 C 128.914062 73.753906 128.472656 73.308594 127.875 73.253906 C 127.980469 73.394531 128.09375 73.539062 128.199219 73.679688 C 128.257812 73.3125 128.335938 72.953125 128.429688 72.59375 C 128.546875 72.175781 127.894531 71.996094 127.78125 72.421875 Z M 127.78125 72.421875 " fill-opacity="1" fill-rule="nonzero"/><g clip-path="url(#f4693aa3d7)"><path fill="#ffffff" d="M 75.132812 83.425781 C 75.132812 93.730469 66.832031 102.058594 56.5625 102.058594 C 46.292969 102.058594 37.988281 93.730469 37.988281 83.425781 C 37.988281 73.125 46.292969 64.792969 56.5625 64.792969 C 66.832031 64.792969 75.132812 73.125 75.132812 83.425781 Z M 108.128906 64.792969 C 97.859375 64.792969 89.554688 73.125 89.554688 83.425781 C 89.554688 93.730469 97.859375 102.058594 108.128906 102.058594 C 118.398438 102.058594 126.699219 93.730469 126.699219 83.425781 C 126.699219 73.125 118.398438 64.792969 108.128906 64.792969 Z M 108.128906 64.792969 " fill-opacity="1" fill-rule="nonzero"/></g><g clip-path="url(#f5977a46ef)"><path fill="#000000" d="M 90.648438 104.800781 C 84.855469 106.554688 78.519531 106.441406 72.839844 104.46875 C 71.746094 104.140625 70.980469 102.9375 71.308594 101.730469 C 71.636719 100.632812 72.839844 99.867188 74.042969 100.195312 C 79.066406 101.949219 84.421875 102.058594 89.554688 100.523438 C 92.285156 99.757812 93.378906 103.921875 90.648438 104.800781 Z M 74.367188 80.46875 C 74.367188 73.5625 68.90625 68.082031 62.023438 68.082031 C 55.25 68.082031 49.679688 73.671875 49.679688 80.46875 C 49.679688 87.261719 55.25 92.851562 62.023438 92.851562 C 68.90625 92.851562 74.367188 87.261719 74.367188 80.46875 Z M 113.808594 68.082031 C 107.035156 68.082031 101.464844 73.671875 101.464844 80.46875 C 101.464844 87.261719 107.035156 92.851562 113.808594 92.851562 C 120.582031 92.851562 126.15625 87.261719 126.15625 80.46875 C 126.15625 73.671875 120.582031 68.082031 113.808594 68.082031 Z M 64.097656 49.558594 C 65.300781 49.667969 66.285156 48.460938 66.285156 47.367188 C 66.285156 46.160156 65.300781 45.285156 64.097656 45.175781 C 57.761719 44.625 51.425781 46.050781 45.746094 49.011719 C 43.230469 50.324219 45.417969 54.164062 47.929688 52.847656 C 52.957031 50.214844 58.527344 49.121094 64.097656 49.558594 Z M 117.414062 52.847656 C 119.925781 54.164062 122.113281 50.4375 119.597656 49.011719 C 114.027344 46.050781 107.582031 44.625 101.355469 45.175781 C 100.152344 45.285156 99.167969 46.160156 99.167969 47.367188 C 99.167969 48.460938 100.152344 49.667969 101.355469 49.558594 C 106.925781 49.121094 112.496094 50.214844 117.414062 52.847656 Z M 117.414062 52.847656 " fill-opacity="1" fill-rule="nonzero"/></g></svg>